<svg width="556" height="625" viewBox="0 0 556 625" fill="none" xmlns="http://www.w3.org/2000/svg">
<path d="M185.755 85.3555C185.139 86.463 184.386 87.4889 183.515 88.4091C183.344 87.8394 183.179 87.3096 183.013 86.7569C183.97 86.3794 184.888 85.9101 185.755 85.3555Z" fill="#EFF0F1"/>
<path d="M4.32674 71.9389C4.32674 76.1696 6.0081 80.227 9.00104 83.2186C11.994 86.2101 16.0533 87.8908 20.2859 87.8908H162.209L170.109 93.1378H15.6805C13.6971 93.14 11.7326 92.7515 9.89948 91.9943C8.06635 91.2372 6.40056 90.1263 4.99724 88.7253C3.59392 87.3242 2.48064 85.6604 1.72108 83.829C0.961533 81.9975 0.570557 80.0344 0.570557 78.0519V41.8298C0.570816 39.8465 0.963211 37.8828 1.72519 36.0516C2.48717 34.2204 3.60373 32.5577 5.01067 31.1592C4.56824 32.638 4.34358 34.1733 4.34378 35.7168L4.32674 71.9389Z" fill="#EFF0F1"/>
<path d="M493.797 521.929C493.797 521.895 493.842 521.855 493.865 521.826C500.414 516.26 506.975 511.167 513.449 506.524C513.635 506.6 513.826 506.665 514.019 506.718C514.324 506.792 514.635 506.836 514.948 506.849C508.456 511.48 501.839 516.568 495.25 522.134C494.379 522.351 493.538 522.676 492.748 523.102C493.126 522.738 493.477 522.345 493.797 521.929Z" fill="#1A1A1A"/>
<path d="M490.969 524.322C491.083 524.276 491.197 524.219 491.311 524.162C490.663 524.765 490.234 525.567 490.092 526.441C490.092 526.498 490.092 526.561 490.092 526.618C486.98 529.375 483.886 532.244 480.812 535.226C480.391 535.112 479.957 534.998 479.53 534.895C483.296 531.204 487.109 527.679 490.969 524.322Z" fill="#1A1A1A"/>
<path d="M522.928 499.966C530.845 494.702 538.465 490.128 545.516 486.208C546.015 486.362 546.533 486.449 547.055 486.464C547.18 486.464 547.306 486.464 547.431 486.464C539.839 490.64 531.546 495.58 522.922 501.351C522.689 501.385 522.455 501.425 522.227 501.47C522.472 500.986 522.711 500.491 522.928 499.966Z" fill="#1A1A1A"/>
<path d="M492.753 523.102C492.227 523.389 491.742 523.745 491.311 524.162C491.197 524.219 491.083 524.276 490.969 524.321C490.526 524.507 490.053 524.611 489.573 524.629C488.462 524.627 487.395 524.189 486.603 523.41C486.109 522.954 485.672 522.44 485.304 521.877C484.88 521.209 484.518 520.503 484.221 519.77C483.888 518.918 483.621 518.042 483.423 517.149C483.214 516.129 483.081 515.095 483.024 514.055C482.896 511.682 483.123 509.303 483.696 506.997C484.226 504.794 485.04 502.671 486.119 500.679C486.969 499.095 488.023 497.63 489.254 496.32C491.437 494.041 493.751 492.902 495.768 493.517C497.786 494.133 499.069 496.411 499.468 499.636C499.667 501.395 499.667 503.17 499.468 504.929C499.26 506.827 498.927 508.709 498.47 510.563C498.045 512.308 497.531 514.031 496.931 515.725C496.618 516.522 496.361 517.308 495.996 518.038C495.694 518.754 495.349 519.452 494.965 520.128C494.646 520.725 494.282 521.296 493.876 521.838C493.876 521.838 493.831 521.906 493.808 521.94C493.485 522.353 493.133 522.741 492.753 523.102Z" fill="#44B4B4"/>
<path d="M491.311 524.162C491.742 523.746 492.227 523.389 492.753 523.102C493.543 522.676 494.384 522.351 495.256 522.134L495.723 522.02C497.571 521.645 499.465 521.545 501.343 521.724C505.824 522.147 510.121 523.717 513.82 526.281C515.369 527.354 516.748 528.652 517.912 530.133C519.941 532.793 520.46 535.385 519.36 537.151C518.26 538.918 515.803 539.63 512.833 539.596C509.344 539.44 505.903 538.714 502.648 537.448C499.343 536.318 496.245 534.655 493.477 532.525C491.249 530.691 489.852 528.651 490.057 526.623C490.057 526.566 490.057 526.504 490.057 526.447C490.208 525.566 490.649 524.762 491.311 524.162Z" fill="#44B4B4"/>
<path d="M513.426 506.524C511.682 505.846 510.371 504.211 509.591 502.069C508.732 499.306 508.546 496.378 509.049 493.529C509.551 490.68 510.728 487.992 512.48 485.69C514.105 483.753 516.128 482.613 518.214 482.841C520.3 483.069 522.05 484.619 523.133 487.04C524.305 489.929 524.608 493.097 524.005 496.155C523.775 497.458 523.406 498.732 522.905 499.955C522.689 500.479 522.449 500.975 522.198 501.448C521.495 501.587 520.806 501.791 520.141 502.058C517.758 503.032 516.208 504.729 515.912 506.78C515.587 506.83 515.259 506.85 514.931 506.837C514.618 506.825 514.307 506.781 514.002 506.706C513.807 506.658 513.614 506.597 513.426 506.524Z" fill="#44B4B4"/>
<path d="M520.163 502.069C520.829 501.802 521.518 501.598 522.221 501.459C522.449 501.414 522.683 501.374 522.916 501.34C524.983 501.057 527.085 501.186 529.101 501.721C532.073 502.424 534.747 504.049 536.738 506.365C538.363 508.393 538.887 510.649 538.123 512.597C537.36 514.546 535.496 515.85 533.193 516.5C530.59 517.114 527.876 517.085 525.286 516.414C522.697 515.742 520.31 514.45 518.334 512.648C516.624 510.939 515.644 508.923 515.923 506.843C515.92 506.826 515.92 506.809 515.923 506.792C516.231 504.764 517.781 503.055 520.163 502.069Z" fill="#44B4B4"/>
<path d="M450.262 493.312C450.373 493.278 450.482 493.236 450.587 493.187C452.063 492.526 452.901 490.663 452.981 488.025C457.979 478.431 463.286 468.963 468.94 459.699C470.008 459.319 470.92 458.596 471.533 457.643C466.273 466.137 461.308 474.819 456.6 483.616L456.441 483.752C455.644 484.468 454.967 485.307 454.434 486.236C454.03 486.981 453.809 487.811 453.79 488.658C453.79 488.749 453.79 488.828 453.79 488.92C453.471 489.529 453.152 490.133 452.838 490.743C449.048 498.086 445.429 505.601 443.149 513.451L442.18 512.682C444.175 505.982 447.11 499.562 450.262 493.312Z" fill="#1A1A1A"/>
<path d="M496.43 420.15C501.586 413.693 506.978 407.447 512.606 401.412C512.737 401.412 512.868 401.446 512.999 401.458C513.416 401.479 513.834 401.442 514.242 401.35C508.09 407.859 502.228 414.643 496.658 421.7C496.498 421.768 496.327 421.825 496.173 421.899C496.282 421.335 496.367 420.754 496.43 420.15Z" fill="#1A1A1A"/>
<path d="M537.109 378.249C537.357 378.541 537.634 378.808 537.935 379.046C531.578 384.325 525.499 389.891 519.696 395.744C520.046 394.941 520.341 394.115 520.58 393.272C525.865 388.042 531.375 383.034 537.109 378.249Z" fill="#1A1A1A"/>
<path d="M473.334 453.489C473.437 453.073 473.534 452.634 473.614 452.184C478.66 444.281 483.98 436.571 489.573 429.054C489.759 429.118 489.949 429.168 490.143 429.202C490.159 429.394 490.188 429.584 490.228 429.772C490.228 429.84 490.28 429.909 490.297 429.977C485.216 436.791 480.368 443.787 475.751 450.965H475.717C474.784 451.664 473.978 452.517 473.334 453.489Z" fill="#1A1A1A"/>
<path d="M450.587 493.186C450.481 493.235 450.373 493.277 450.262 493.312C448.375 493.915 445.913 492.742 443.303 490.463C440.538 488.053 437.563 484.47 434.753 480.208C431.943 475.947 429.823 471.822 428.694 468.33C427.566 464.838 427.497 461.995 429.047 460.565C430.598 459.135 433.51 459.494 436.947 461.465C438.891 462.612 440.685 463.995 442.288 465.584C446.151 469.399 449.174 473.978 451.162 479.029C452.003 481.125 452.577 483.319 452.872 485.558C452.97 486.371 453.008 487.189 452.986 488.008C452.901 490.662 452.063 492.525 450.587 493.186Z" fill="#44B4B4"/>
<path d="M454.428 486.236C454.961 485.307 455.638 484.468 456.435 483.752L456.594 483.616C457.365 482.938 458.199 482.335 459.085 481.815C459.324 481.673 459.547 481.547 459.786 481.416L460.419 481.063C460.846 480.835 461.297 480.607 461.764 480.397C463.766 479.499 465.872 478.854 468.034 478.477C472.633 477.662 476.959 478.106 480.003 479.297C483.047 480.488 484.888 482.396 484.911 484.487C484.933 486.578 483.235 488.475 480.653 490.013C477.546 491.724 474.165 492.881 470.661 493.432C468.802 493.767 466.919 493.958 465.03 494.001C464.58 494.001 464.146 494.001 463.719 494.001H463.081L462.556 493.944C461.975 493.871 461.403 493.743 460.846 493.563C460.404 493.402 459.974 493.212 459.558 492.993C459.099 492.824 458.629 492.689 458.15 492.588C457.175 492.461 456.229 492.162 455.357 491.705C454.887 491.408 454.496 491 454.219 490.518C453.942 490.035 453.787 489.493 453.767 488.937C453.767 488.845 453.767 488.766 453.767 488.675C453.788 487.82 454.015 486.984 454.428 486.236Z" fill="#44B4B4"/>
<path d="M468.934 459.7C468.659 459.787 468.374 459.84 468.085 459.859C465.988 459.985 463.999 458.31 462.346 455.666C458.72 449.13 457.188 441.639 457.957 434.205C458.436 431.129 459.604 428.81 461.588 428.098C463.571 427.386 465.988 428.497 468.216 431.032C470.445 433.567 472.423 437.544 473.386 442.232C474.081 445.509 474.159 448.886 473.614 452.191C473.534 452.641 473.437 453.08 473.335 453.496C473.215 453.672 473.095 453.849 472.998 454.025C472.533 454.839 472.238 455.738 472.132 456.669V456.709C471.96 457.031 471.769 457.343 471.562 457.643C470.94 458.602 470.015 459.326 468.934 459.7Z" fill="#44B4B4"/>
<path d="M472.998 454.025C473.095 453.848 473.215 453.672 473.334 453.495C473.981 452.522 474.791 451.669 475.728 450.971H475.762C477.042 450.033 478.483 449.338 480.014 448.92C481.562 448.501 483.173 448.37 484.768 448.533C486.142 448.675 487.472 449.102 488.672 449.786C490.85 451.062 491.95 453.051 491.841 455.13C491.733 457.21 490.61 459.061 489.202 460.508C487.775 461.974 485.98 463.03 484.005 463.567C482.03 464.104 479.948 464.102 477.974 463.562C475.958 463.112 474.177 461.938 472.97 460.263C472.281 459.211 471.985 457.951 472.132 456.703C472.233 455.76 472.528 454.848 472.998 454.025Z" fill="#44B4B4"/>
<path d="M493.113 423.717C491.044 425.346 489.972 427.329 490.155 429.209C489.961 429.174 489.771 429.124 489.585 429.06C488.88 428.815 488.234 428.427 487.687 427.921C487.196 427.473 486.746 426.983 486.342 426.457C486.131 426.178 485.92 425.887 485.715 425.562C485.509 425.238 485.287 424.913 485.088 424.565C484.194 423.008 483.432 421.378 482.808 419.694C481.338 415.741 480.312 411.637 479.747 407.457C479.499 405.681 479.398 403.888 479.445 402.096C479.445 401.69 479.473 401.297 479.53 400.917C479.559 400.546 479.604 400.182 479.661 399.834C479.77 399.179 479.936 398.535 480.157 397.909C480.487 396.838 481.193 395.923 482.147 395.334C482.651 395.079 483.205 394.936 483.769 394.916C484.334 394.895 484.897 394.997 485.418 395.214C486.104 395.455 486.752 395.79 487.345 396.211C487.67 396.433 488.006 396.684 488.342 396.963C488.678 397.242 488.992 397.533 489.323 397.88C490.79 399.405 492.032 401.132 493.01 403.008C495.342 407.449 496.577 412.383 496.612 417.399C496.606 418.326 496.549 419.252 496.441 420.173C496.379 420.777 496.293 421.358 496.185 421.922C495.089 422.389 494.057 422.992 493.113 423.717Z" fill="#44B4B4"/>
<path d="M490.154 429.208C489.972 427.328 491.044 425.345 493.113 423.716C494.052 422.984 495.081 422.373 496.173 421.899C496.327 421.825 496.498 421.768 496.658 421.699C498.604 420.913 500.662 420.44 502.757 420.298C506.746 420.024 510.514 420.867 513.13 422.577C513.751 422.956 514.325 423.408 514.84 423.921C515.293 424.362 515.678 424.869 515.98 425.425C516.523 426.369 516.677 427.487 516.407 428.541C516.113 429.557 515.561 430.479 514.806 431.219C514.421 431.618 514.004 431.984 513.558 432.313C513.084 432.662 512.587 432.978 512.07 433.259C506.731 435.844 500.587 436.223 494.971 434.313C492.622 433.378 490.878 431.926 490.325 429.983C490.325 429.914 490.274 429.846 490.257 429.778C490.211 429.59 490.177 429.4 490.154 429.208Z" fill="#44B4B4"/>
<path d="M512.999 401.458C512.868 401.458 512.737 401.458 512.606 401.412C508.616 400.803 505.8 394.633 506.239 387.312C506.695 379.752 510.457 373.827 514.646 374.077C518.835 374.328 521.856 380.658 521.406 388.223C521.306 389.931 521.024 391.623 520.562 393.271C520.323 394.114 520.028 394.94 519.679 395.744L519.457 396.228C519.101 396.689 518.818 397.202 518.619 397.749C517.399 399.674 515.883 400.968 514.247 401.349C513.838 401.443 513.418 401.479 512.999 401.458Z" fill="#44B4B4"/>
<path d="M521.526 394.331C522.834 393.504 524.283 392.925 525.801 392.622C529.374 391.908 533.083 392.368 536.374 393.933C537.769 394.591 539.031 395.5 540.096 396.616C541.994 398.655 542.569 400.968 541.805 402.883C541.042 404.797 539.127 406.102 536.909 406.842C534.462 407.577 531.888 407.799 529.351 407.493C526.814 407.187 524.367 406.36 522.164 405.065C520.192 403.811 518.665 402.131 518.368 400.046C518.262 399.277 518.346 398.495 518.613 397.767C518.812 397.22 519.095 396.706 519.451 396.246C520.027 395.492 520.729 394.845 521.526 394.331Z" fill="#44B4B4"/>
<path d="M537.109 378.248C536.433 377.431 535.992 376.447 535.832 375.4C535.646 374.188 535.754 372.949 536.145 371.788C536.594 370.461 537.325 369.247 538.289 368.23C539.252 367.213 540.424 366.417 541.725 365.897C542.864 365.439 544.095 365.264 545.316 365.384C546.36 365.481 547.358 365.857 548.207 366.472C549.055 367.088 549.722 367.92 550.138 368.882C550.876 370.674 551.139 372.627 550.902 374.551C550.708 376.26 550.269 377.673 549.317 378.664C548.366 379.655 547.037 380.179 545.328 380.47C543.42 380.813 541.456 380.656 539.628 380.014C539.031 379.782 538.473 379.459 537.975 379.057C537.659 378.818 537.369 378.547 537.109 378.248Z" fill="#44B4B4"/>
<path d="M541.193 489.8C540.518 488.984 540.076 487.999 539.916 486.952C539.731 485.74 539.838 484.501 540.23 483.34C540.679 482.013 541.41 480.799 542.373 479.782C543.336 478.765 544.509 477.969 545.81 477.449C546.948 476.992 548.18 476.816 549.401 476.936C550.445 477.033 551.443 477.409 552.291 478.025C553.14 478.64 553.807 479.472 554.223 480.434C554.961 482.227 555.224 484.179 554.986 486.103C554.793 487.812 554.354 489.225 553.402 490.216C552.45 491.207 551.122 491.732 549.412 492.022C547.505 492.365 545.541 492.208 543.712 491.566C543.115 491.335 542.558 491.012 542.06 490.609C541.744 490.37 541.453 490.099 541.193 489.8Z" fill="#44B4B4"/>
<path d="M318.65 165.416C318.542 165.381 318.428 165.368 318.314 165.378C318.201 165.388 318.091 165.42 317.991 165.473C317.89 165.527 317.801 165.599 317.73 165.687C317.658 165.775 317.604 165.877 317.573 165.986L310.043 189.11C309.941 189.054 309.832 188.991 309.724 188.94L309.644 188.9C309.696 186.051 309.73 182.941 309.73 179.784C309.73 175.386 309.661 170.908 309.456 167.051C309.228 162.693 309.114 152.159 309.017 140.053C308.92 127.947 308.835 114.234 308.641 103.455C308.601 101.29 308.561 99.2447 308.51 97.3532C309.516 98.2421 310.647 98.9792 311.867 99.5409C314.283 100.608 316.904 101.133 319.545 101.079C327.855 101.079 333.64 99.0567 337.556 96.6582C337.311 100.452 337.014 105.004 336.689 110.018C335.755 124.261 334.546 142.132 333.452 156.842C333.163 160.739 332.931 164.362 332.757 167.712C332.654 168.441 332.551 169.182 332.443 169.94L318.65 165.416Z" fill="#02607E"/>
<path d="M354.131 601.927L347.422 602.833C344.232 603.328 341.107 604.183 338.109 605.379C329.867 599.42 316.096 595.512 300.49 595.512C295.934 595.504 291.383 595.849 286.879 596.543C286.914 594.965 286.936 593.472 286.954 592.111C288.286 591.554 289.428 590.624 290.242 589.433C299.632 584.452 309.949 581.464 320.548 580.654C318.231 561.148 323.631 541.51 335.595 525.928C337.561 538.336 339.408 549.525 341.05 559.085C343.58 573.795 345.609 584.648 346.926 590.231C347.274 591.723 347.564 592.834 347.81 593.581C347.908 593.905 348.04 594.218 348.203 594.515C348.595 595.121 349.124 595.626 349.747 595.99C350.421 596.388 351.149 596.688 351.908 596.879C352.675 597.076 353.456 597.217 354.245 597.301L354.701 601.859L354.131 601.927Z" fill="#02607E"/>
<path d="M378.839 622.516C379.067 620.362 379.152 617.457 379.152 614.283C379.152 610.865 379.05 607.105 378.924 603.692C378.782 599.904 378.599 596.526 378.48 594.44C380.258 594.025 381.329 593.734 381.329 593.734C381.514 593.684 381.677 593.574 381.791 593.421C381.906 593.269 381.966 593.082 381.962 592.891C381.962 592.891 381.962 592.418 381.934 591.512C381.905 590.606 381.888 589.267 381.848 587.524C381.78 584.066 381.677 579.03 381.557 572.746C381.312 560.172 380.987 542.586 380.668 522.537C380.543 514.664 380.412 506.403 380.292 497.926C391.061 495.737 402.177 495.924 412.866 498.472C423.555 501.021 433.559 505.87 442.18 512.682L443.137 513.451C449.791 518.891 455.469 525.424 459.929 532.769C460.561 532.769 461.188 532.769 461.821 532.769C467.776 532.769 473.71 533.492 479.49 534.923C479.918 535.026 480.351 535.139 480.773 535.253C499.543 540.288 515.545 552.567 525.26 569.391C534.976 586.215 537.61 606.207 532.583 624.971H378.405C378.616 624.166 378.761 623.344 378.839 622.516Z" fill="#02607E"/>
<path d="M285.768 619.668C286.167 615.874 286.435 610.832 286.617 605.75C286.731 602.599 286.811 599.432 286.862 596.543C291.366 595.849 295.916 595.504 300.473 595.512C316.073 595.512 329.844 599.421 338.091 605.38C332.618 607.527 327.798 611.061 324.104 615.634C321.831 618.422 320.073 621.591 318.912 624.995H284.867C284.93 624.79 284.993 624.573 285.05 624.34C285.388 622.799 285.628 621.239 285.768 619.668Z" fill="#02607E"/>
<path d="M320.713 624.972C320.873 624.516 321.101 623.929 321.408 623.263C322.463 620.915 323.815 618.713 325.432 616.711C329.422 611.778 336.182 606.382 347.661 604.554L354.136 603.676C354.686 603.905 355.26 604.073 355.846 604.178H355.875C360.379 604.837 364.922 605.197 369.474 605.254C371.188 605.254 372.909 605.178 374.638 605.026C375.504 604.952 376.377 604.85 377.254 604.73C377.363 607.869 377.448 611.219 377.448 614.313C377.496 617.264 377.361 620.215 377.043 623.149C376.981 623.682 376.871 624.208 376.713 624.721C376.682 624.817 376.643 624.91 376.599 625H320.742L320.713 624.972Z" fill="black"/>
<path d="M338.086 605.38C341.084 604.183 344.209 603.329 347.399 602.833L354.108 601.927C353.923 601.953 353.753 602.039 353.621 602.171C353.49 602.302 353.405 602.474 353.38 602.658C353.355 602.842 353.391 603.03 353.482 603.192C353.573 603.354 353.715 603.482 353.885 603.557L354.113 603.648L347.638 604.525C336.159 606.354 329.399 611.749 325.409 616.683C323.792 618.685 322.44 620.887 321.385 623.234C321.078 623.929 320.85 624.516 320.69 624.943H318.883C320.044 621.54 321.803 618.37 324.076 615.583C327.782 611.026 332.61 607.51 338.086 605.38Z" fill="black"/>
<path d="M369.468 605.225C371.182 605.225 372.903 605.149 374.632 604.998C372.903 605.153 371.182 605.229 369.468 605.225Z" fill="black"/>
<path d="M377.037 623.12C377.355 620.186 377.491 617.235 377.442 614.284C377.442 611.191 377.357 607.841 377.248 604.702C377.568 604.656 377.881 604.622 378.2 604.571C378.407 604.538 378.595 604.43 378.728 604.269C378.861 604.107 378.931 603.903 378.924 603.693C379.049 607.112 379.152 610.849 379.152 614.284C379.152 617.457 379.067 620.363 378.839 622.516C378.761 623.345 378.616 624.167 378.405 624.972H376.593C376.637 624.882 376.676 624.788 376.707 624.693C376.865 624.18 376.975 623.654 377.037 623.12Z" fill="black"/>
<path d="M377.203 602.987C374.646 603.344 372.067 603.521 369.486 603.517C365.136 603.466 360.795 603.128 356.49 602.503L355.983 597.444C356.485 597.444 356.998 597.478 357.528 597.478C362.464 597.478 368.403 596.538 373.128 595.603C374.473 595.336 375.715 595.074 376.81 594.829C376.81 595.108 376.838 595.398 376.855 595.712C376.947 597.626 377.072 600.167 377.203 602.987Z" fill="#EFF0F1"/>
<path d="M378.2 604.571C377.881 604.622 377.568 604.656 377.249 604.702C376.371 604.821 375.499 604.924 374.632 604.998C372.903 605.15 371.182 605.226 369.468 605.226C364.916 605.169 360.373 604.809 355.869 604.149H355.84C355.254 604.045 354.681 603.876 354.13 603.648L353.902 603.557C353.732 603.482 353.59 603.354 353.499 603.192C353.408 603.03 353.372 602.842 353.397 602.658C353.422 602.474 353.507 602.302 353.638 602.171C353.77 602.039 353.94 601.953 354.125 601.927L354.695 601.853L354.239 597.295C354.809 597.358 355.379 597.409 355.949 597.438L356.456 602.497C360.761 603.122 365.102 603.461 369.451 603.511C372.033 603.515 374.612 603.338 377.169 602.981C377.055 600.133 376.929 597.603 376.821 595.706C376.821 595.393 376.793 595.102 376.775 594.823L378.485 594.436C378.605 596.521 378.787 599.899 378.93 603.688C378.938 603.899 378.868 604.105 378.734 604.268C378.599 604.431 378.409 604.539 378.2 604.571Z" fill="black"/>
<path d="M284.93 605.032C284.36 605.185 283.745 605.311 283.14 605.408C282.679 605.487 282.217 605.544 281.75 605.59C280.98 605.664 280.211 605.715 279.43 605.715C273.941 605.715 268.196 603.96 263.043 601.984L264.918 589.786C265.962 590.156 267.432 590.658 269.148 591.153C272.567 592.15 277.002 593.153 281.043 593.159C282.455 593.175 283.864 593.018 285.238 592.692C285.17 596.281 285.078 600.662 284.93 605.032Z" fill="#EFF0F1"/>
<path d="M286.617 605.75C286.621 605.615 286.594 605.481 286.536 605.358C286.479 605.236 286.393 605.129 286.287 605.046C286.18 604.962 286.055 604.905 285.923 604.879C285.79 604.853 285.653 604.859 285.523 604.896C285.329 604.953 285.13 604.992 284.953 605.044C285.101 600.663 285.192 596.282 285.238 592.692C285.726 592.571 286.206 592.419 286.674 592.237L286.959 592.111C286.959 593.473 286.919 594.96 286.885 596.544C286.811 599.432 286.731 602.6 286.617 605.75Z" fill="black"/>
<path d="M264.918 589.787L263.066 601.996C268.196 603.973 273.964 605.727 279.453 605.727C273.753 605.727 267.74 603.824 262.428 601.739C262.219 601.657 261.986 601.657 261.778 601.739L261.362 601.796L263.282 589.143C263.396 589.223 263.984 589.456 264.918 589.787Z" fill="black"/>
<path d="M227.175 624.973C227.34 624.517 227.562 623.93 227.87 623.264C228.926 620.917 230.279 618.716 231.894 616.712C235.884 611.778 242.644 606.383 254.123 604.554L261.185 603.597L262.057 603.483C267.38 605.54 273.456 607.471 279.424 607.471C281.254 607.478 283.078 607.276 284.861 606.867C284.639 612.604 284.291 618.17 283.796 621.68C283.682 622.643 283.491 623.596 283.226 624.528C283.178 624.682 283.117 624.83 283.043 624.973H227.186H227.175Z" fill="black"/>
<path d="M262.405 601.751C267.717 603.824 273.713 605.739 279.43 605.739C280.211 605.739 280.98 605.687 281.75 605.613C282.217 605.568 282.679 605.511 283.14 605.431C283.744 605.334 284.337 605.209 284.93 605.055C285.129 605.004 285.329 604.964 285.5 604.907C285.63 604.87 285.767 604.864 285.9 604.89C286.033 604.917 286.157 604.973 286.264 605.057C286.371 605.14 286.456 605.247 286.513 605.37C286.571 605.492 286.599 605.626 286.594 605.761C286.412 610.843 286.144 615.885 285.745 619.679C285.604 621.243 285.365 622.795 285.027 624.328C284.97 624.562 284.907 624.778 284.844 624.983H283.009C283.083 624.841 283.144 624.692 283.192 624.539C283.457 623.606 283.647 622.654 283.762 621.69C284.269 618.158 284.605 612.575 284.827 606.878C283.044 607.286 281.219 607.489 279.39 607.482C273.405 607.482 267.346 605.556 262.023 603.494L261.151 603.608L254.089 604.565C242.604 606.394 235.85 611.789 231.86 616.723C230.257 618.725 228.917 620.922 227.87 623.263C227.562 623.958 227.34 624.545 227.175 624.972H225.368C226.529 621.568 228.287 618.399 230.56 615.612C234.147 611.175 238.797 607.718 244.08 605.562C247.219 604.265 250.503 603.348 253.861 602.833L261.316 601.825L261.732 601.768C261.945 601.674 262.187 601.667 262.405 601.751Z" fill="black"/>
<path d="M313.896 361.465H313.833C313.608 361.49 313.402 361.604 313.261 361.782C313.12 361.959 313.055 362.185 313.081 362.41C313.286 364.195 313.493 365.982 313.702 367.771C312.152 385.164 310.345 405.093 308.419 425.711C303.437 479.03 297.629 536.963 293.183 567.443C291.918 576.142 290.755 582.62 289.763 586.032C289.586 586.7 289.357 587.354 289.079 587.986C288.419 589.226 287.32 590.175 285.996 590.647C284.396 591.224 282.703 591.496 281.003 591.45C277.48 591.45 273.468 590.607 270.219 589.695C267.426 588.915 265.198 588.095 264.297 587.747V587.719C264.24 587.388 264.154 586.881 264.041 586.203C263.818 584.842 263.471 582.785 263.066 579.982C262.222 574.382 261.003 565.813 259.504 553.975C256.505 530.286 252.402 493.495 247.967 441.059C247.538 436.022 247.158 430.98 246.827 425.933C248.616 427.082 250.47 428.129 252.379 429.066C263.357 434.478 279.544 438.478 301.567 438.751C301.781 438.754 301.988 438.676 302.147 438.534C302.307 438.391 302.407 438.195 302.428 437.982C307.022 391.044 308.555 336.403 308.555 284.383C308.555 270.197 308.441 256.205 308.242 242.618L309.45 243.011L313.896 361.465Z" fill="black"/>
<path d="M246.844 425.933C247.175 430.973 247.555 436.014 247.984 441.058C252.419 493.471 256.534 530.286 259.521 553.975C261.02 565.813 262.239 574.382 263.083 579.982C263.505 582.785 263.835 584.841 264.057 586.203C264.171 586.881 264.257 587.388 264.314 587.718V587.747C265.215 588.094 267.443 588.886 270.236 589.695C273.485 590.607 277.497 591.45 281.02 591.45C282.72 591.496 284.413 591.224 286.013 590.647C287.337 590.175 288.436 589.226 289.096 587.986C289.374 587.353 289.603 586.7 289.78 586.032C290.755 582.614 291.918 576.142 293.2 567.442C297.646 536.963 303.46 479.029 308.436 425.71C310.362 405.093 312.169 385.164 313.719 367.771C314.038 370.523 314.369 373.28 314.694 376.037C312.562 399.829 310.031 427.505 307.387 454.885C304.315 486.709 301.089 518.123 298.159 542.62C296.7 554.852 295.309 565.34 294.049 573.276C293.417 577.264 292.818 580.58 292.26 583.178C291.979 584.477 291.707 585.591 291.445 586.522C291.238 587.286 290.973 588.032 290.652 588.755C290.533 588.989 290.4 589.215 290.253 589.433C289.439 590.625 288.297 591.555 286.965 592.111L286.68 592.236C286.211 592.419 285.731 592.571 285.243 592.692C283.869 593.019 282.461 593.176 281.048 593.159C277.007 593.159 272.59 592.151 269.153 591.154C267.443 590.658 265.967 590.157 264.924 589.786C264.012 589.456 263.425 589.217 263.288 589.171H263.26C263.125 589.118 263.007 589.032 262.916 588.92C262.826 588.808 262.765 588.675 262.741 588.533C262.741 588.499 255.172 546.13 246.303 441.224C245.843 435.724 245.435 430.217 245.077 424.702C245.625 425.124 246.217 425.528 246.844 425.933Z" fill="black"/>
<path d="M370.072 440.323C372.848 440.13 375.481 439.879 377.915 439.56C378.514 508.307 380.093 584.357 380.264 592.242L378.599 592.652C377.151 593 375.111 593.461 372.78 593.923C368.112 594.846 362.235 595.763 357.51 595.763C356.15 595.778 354.79 595.679 353.446 595.466C352.457 595.325 351.501 595.007 350.625 594.527C350.231 594.302 349.895 593.988 349.645 593.609C349.557 593.425 349.483 593.234 349.422 593.04C349.314 592.709 349.183 592.253 349.035 591.695C348.744 590.556 348.385 589.023 347.975 587.086C347.148 583.212 346.099 577.783 344.885 571.054C342.452 557.592 339.334 538.929 335.908 517.018C332.346 494.178 328.447 467.801 324.651 440.107C330.961 440.432 341.18 440.853 351.742 440.853C357.955 440.865 364.304 440.722 370.072 440.323Z" fill="black"/>
<path d="M314.779 362.217C314.754 362.004 314.649 361.808 314.485 361.668C314.321 361.529 314.111 361.456 313.896 361.465L309.467 242.966L320.206 246.47C318.997 256.314 318.017 266.444 317.441 276.664C315.965 302.802 315.475 329.544 315.475 353.575C315.475 358.742 315.475 363.784 315.538 368.672C315.275 366.526 315.023 364.374 314.779 362.217Z" fill="black"/>
<path d="M381.58 572.758C381.7 579.025 381.802 584.079 381.871 587.537C381.911 589.246 381.939 590.607 381.956 591.525C381.973 592.442 381.985 592.898 381.985 592.903C381.989 593.094 381.929 593.281 381.814 593.434C381.699 593.587 381.537 593.697 381.352 593.746C381.352 593.746 380.258 594.037 378.502 594.453L376.792 594.84C375.698 595.085 374.456 595.347 373.11 595.615C368.385 596.549 362.446 597.489 357.51 597.489C356.98 597.489 356.467 597.489 355.966 597.455C355.361 597.455 354.791 597.376 354.256 597.313C353.467 597.229 352.686 597.089 351.919 596.891C351.16 596.7 350.432 596.401 349.759 596.003C349.135 595.638 348.606 595.133 348.214 594.527C348.051 594.23 347.919 593.917 347.821 593.593C347.576 592.846 347.285 591.735 346.937 590.243C345.643 584.66 343.591 573.807 341.061 559.097C339.419 549.537 337.573 538.348 335.606 525.94C331.668 501.129 327.239 471.419 322.936 440.039L324.674 440.13C328.47 467.818 332.369 494.196 335.931 517.041C339.351 538.952 342.474 557.616 344.908 571.078C346.122 577.806 347.188 583.235 347.997 587.109C348.408 589.046 348.767 590.596 349.058 591.718C349.206 592.288 349.337 592.732 349.445 593.063C349.506 593.258 349.58 593.448 349.667 593.633C349.918 594.011 350.254 594.325 350.648 594.55C351.524 595.03 352.48 595.348 353.469 595.49C354.813 595.703 356.172 595.802 357.533 595.786C362.258 595.786 368.135 594.869 372.803 593.946C375.134 593.484 377.174 593.023 378.622 592.675L380.286 592.265C380.115 584.375 378.537 508.324 377.938 439.583C378.508 439.504 379.078 439.424 379.648 439.338C379.819 458.862 380.07 478.973 380.343 497.961C380.463 506.439 380.594 514.699 380.72 522.573C381.016 542.598 381.335 560.185 381.58 572.758Z" fill="black"/>
<path d="M313.702 367.771C313.493 365.982 313.286 364.195 313.081 362.41C313.055 362.185 313.12 361.959 313.261 361.782C313.403 361.604 313.608 361.49 313.834 361.465H313.896C314.111 361.456 314.321 361.528 314.485 361.668C314.649 361.807 314.754 362.003 314.78 362.217C315.023 364.37 315.274 366.527 315.532 368.689C315.578 374.266 315.646 379.633 315.732 384.749C315.378 381.843 315.027 378.939 314.677 376.038C314.352 373.28 314.022 370.523 313.702 367.771Z" fill="black"/>
<path d="M372.159 182.815L353.549 176.764L347.764 132.538L359.323 95.5469C362.993 97.5409 366.852 99.7684 370.312 102.007L370.534 102.15L372.7 170.515C372.573 170.515 372.448 170.547 372.335 170.606C372.137 170.71 371.988 170.888 371.92 171.101C371.852 171.314 371.87 171.546 371.971 171.745C373.35 174.4 374.57 178.229 375.59 182.496C376.61 186.763 377.454 191.486 378.121 195.969C378.497 198.493 378.816 200.937 379.089 203.193C378.161 202.727 377.192 202.345 376.194 202.054C374.095 201.484 371.955 201.076 369.793 200.835C368.99 200.732 368.152 200.641 367.302 200.556L372.729 183.892C372.764 183.784 372.777 183.67 372.767 183.556C372.757 183.443 372.725 183.333 372.671 183.233C372.618 183.132 372.545 183.044 372.457 182.972C372.369 182.9 372.268 182.847 372.159 182.815Z" fill="white"/>
<path d="M348.447 255.658C348.556 255.692 348.669 255.705 348.782 255.694C348.895 255.684 349.005 255.652 349.105 255.599C349.206 255.546 349.294 255.473 349.366 255.385C349.438 255.298 349.492 255.197 349.525 255.088L353.224 243.734C362.928 246.749 372.992 248.452 383.147 248.799C383.193 249.91 383.244 251.043 383.296 252.217C383.791 263.434 384.475 277.352 385.234 292.455C386.755 322.65 388.579 357.596 389.793 385.147C390.608 403.514 391.15 418.606 391.15 426.787C391.15 428.342 391.15 429.635 391.087 430.667C391.073 431.389 391.014 432.11 390.91 432.826C390.772 433.4 390.435 433.906 389.959 434.256C389.19 434.86 388.33 435.339 387.411 435.674C384.477 436.716 381.435 437.423 378.343 437.782C370.904 438.819 361.181 439.155 351.753 439.155C336.763 439.155 322.497 438.306 319.117 438.09C319.117 437.834 319.088 437.52 319.071 437.156C319.014 436.016 318.94 434.404 318.849 432.285C318.661 428.04 318.416 421.887 318.171 414.231C317.68 398.917 317.19 377.604 317.19 353.591C317.19 329.578 317.68 302.887 319.151 276.771C319.721 266.699 320.684 256.718 321.87 247.01L348.447 255.658ZM357.134 272.749C357.174 272.943 357.225 273.176 357.299 273.444C357.436 273.985 357.641 274.68 357.92 275.512C358.636 277.658 359.464 279.765 360.4 281.825C362.611 286.747 365.957 292.763 370.545 297.776C370.703 297.915 370.906 297.991 371.116 297.989C371.326 297.988 371.528 297.909 371.684 297.768C371.839 297.628 371.938 297.435 371.96 297.226C371.982 297.017 371.927 296.808 371.805 296.637C365.655 289.903 361.711 281.124 359.91 276.053C359.477 274.883 359.114 273.688 358.821 272.476C358.801 272.386 358.787 272.294 358.781 272.202C358.781 271.976 358.691 271.758 358.531 271.598C358.37 271.438 358.153 271.348 357.926 271.348C357.699 271.348 357.482 271.438 357.322 271.598C357.161 271.758 357.071 271.976 357.071 272.202C357.076 272.378 357.097 272.554 357.134 272.726V272.749Z" fill="white"/>
<path d="M344.538 86.6945C344.628 86.6774 344.721 86.6774 344.812 86.6945C344.951 86.7179 345.088 86.7522 345.222 86.797C345.763 86.9736 346.641 87.3382 347.844 87.8795C349.371 88.5631 351.4 89.5316 353.703 90.6881L344.538 86.6945Z" fill="black"/>
<path d="M370.825 100.321C370.615 100.235 370.379 100.235 370.17 100.323C369.96 100.411 369.794 100.578 369.708 100.788C369.622 100.998 369.622 101.234 369.71 101.443C369.798 101.652 369.965 101.818 370.175 101.904C370.295 101.95 370.409 102.007 370.529 102.058V102.149L370.306 102.007C366.847 99.7681 362.988 97.5405 359.317 95.5465L359.75 94.145C359.779 94.0509 359.79 93.9526 359.785 93.8545C362.224 95.1705 364.76 96.6005 367.194 98.076C368.448 98.828 369.679 99.5858 370.871 100.355L370.796 100.321H370.825Z" fill="black"/>
<path d="M332.745 167.673C332.703 168.455 332.663 169.215 332.625 169.952L332.432 169.889C332.551 169.143 332.654 168.402 332.745 167.673Z" fill="black"/>
<path d="M377.915 439.56C375.481 439.879 372.848 440.13 370.072 440.323C364.304 440.722 357.955 440.893 351.742 440.893C341.163 440.893 330.961 440.471 324.651 440.147L322.913 440.056C319.977 439.89 318.233 439.771 318.228 439.771C318.02 439.756 317.824 439.665 317.678 439.516C317.532 439.367 317.446 439.17 317.435 438.962C317.435 438.962 316.267 416.874 315.725 384.777C315.64 379.649 315.572 374.294 315.526 368.717C315.486 363.829 315.463 358.787 315.463 353.619C315.463 329.583 315.953 302.841 317.43 276.709C318 266.454 318.986 256.347 320.194 246.514L321.853 247.055C320.667 256.74 319.704 266.745 319.134 276.817C317.663 302.915 317.173 329.623 317.173 353.636C317.173 377.65 317.663 398.962 318.154 414.276C318.399 421.933 318.644 428.086 318.832 432.33C318.923 434.45 318.997 436.09 319.054 437.201C319.054 437.572 319.088 437.879 319.1 438.136C322.48 438.352 336.769 439.201 351.736 439.201C361.164 439.201 370.887 438.865 378.326 437.828C381.421 437.473 384.467 436.77 387.405 435.731C388.324 435.396 389.184 434.918 389.953 434.313C390.429 433.963 390.766 433.457 390.905 432.883C391.008 432.168 391.067 431.446 391.082 430.724C391.121 429.704 391.144 428.399 391.144 426.844C391.144 418.663 390.574 403.571 389.788 385.204C388.574 357.653 386.75 322.713 385.228 292.512C384.47 277.409 383.786 263.491 383.29 252.274C383.239 251.106 383.187 249.995 383.142 248.856C383.712 248.856 384.282 248.896 384.852 248.901C385.051 253.527 385.285 258.677 385.553 264.249C386.767 289.943 388.591 324.416 390.113 355.551C391.634 386.685 392.848 414.47 392.854 426.838C392.854 428.405 392.854 429.727 392.791 430.786C392.774 431.589 392.705 432.39 392.586 433.185C392.379 434.148 391.838 435.008 391.059 435.612C389.679 436.751 387.599 437.606 384.971 438.295C383.204 438.738 381.416 439.092 379.614 439.355C379.066 439.4 378.497 439.48 377.915 439.56Z" fill="black"/>
<path d="M312.585 97.9518C310.997 97.2211 309.584 96.1585 308.441 94.8355C308.344 91.5824 308.231 88.9219 308.082 87.0817C308.054 86.6773 308.02 86.3126 307.985 85.9879C309.382 85.4182 310.368 85.0593 310.545 84.9966H310.573C310.724 84.9447 310.858 84.8515 310.958 84.7276C311.059 84.6038 311.123 84.4542 311.143 84.2959L312.682 71.9731C312.938 71.8648 313.286 71.7167 313.685 71.5344C314.661 71.1014 315.613 70.6145 316.535 70.0759C317.116 69.7473 317.654 69.3473 318.137 68.8853C318.408 68.6292 318.605 68.3043 318.707 67.9452C318.736 67.8241 318.738 67.698 318.714 67.5758C318.689 67.4536 318.638 67.3383 318.565 67.2379C318.491 67.1374 318.396 67.0544 318.286 66.9945C318.177 66.9346 318.056 66.8994 317.931 66.8913L312.46 66.5494H312.334H312.095C311.785 66.5218 311.476 66.4761 311.172 66.4127C310.088 66.1943 309.04 65.8241 308.06 65.3132C305.614 64.0484 302.639 61.5531 300.564 56.3745C299.47 53.8051 298.854 49.7487 298.854 45.0714C298.884 39.465 299.672 33.8883 301.197 28.4929C301.414 28.1226 301.687 27.6725 302.058 27.1199C303.861 24.4517 305.833 21.9018 307.963 19.4858C307.963 20.0555 307.923 20.6765 307.923 21.2633C307.923 30.5952 311.343 37.5798 315.418 41.1746C316.621 42.2875 318.064 43.1082 319.636 43.5731C320.137 43.7141 320.654 43.7906 321.175 43.801C321.523 43.8046 321.87 43.7507 322.201 43.6415C322.511 43.5287 322.795 43.3521 323.033 43.123C323.446 42.6852 323.728 42.1405 323.848 41.5506C323.943 41.1624 324.013 40.7685 324.059 40.3713C324.133 39.8016 324.19 39.2319 324.275 38.6622C324.377 37.8721 324.568 37.0961 324.845 36.3492C325.271 35.2357 326 34.263 326.948 33.5405C327.33 33.2472 327.745 33.0005 328.185 32.8056C328.448 32.674 328.735 32.6001 329.029 32.5891C329.183 32.5866 329.336 32.6218 329.473 32.6917C329.637 32.7783 329.781 32.8987 329.895 33.0449C330.311 33.5923 330.606 34.2213 330.762 34.8908C331.269 36.6625 331.531 39.4484 331.525 43.1515C331.525 45.8975 331.388 49.1449 331.126 52.8366C331.075 53.5487 331.052 54.221 331.052 54.8533C331.052 57.4512 331.457 59.411 332.192 60.8638C332.67 61.8523 333.412 62.6901 334.335 63.285C333.652 68.1009 333.271 72.9548 333.195 77.8183C333.185 79.9891 333.312 82.1584 333.577 84.313C333.599 84.4715 333.655 84.6232 333.742 84.7573C333.802 84.8476 333.871 84.9315 333.948 85.008C334.084 85.1412 334.233 85.2614 334.392 85.3669C334.781 85.6199 335.185 85.8501 335.601 86.0563C336.336 86.4266 337.236 86.8311 338.165 87.2356C338.091 88.4377 337.983 90.1411 337.846 92.2604C337.801 92.9554 337.755 93.7018 337.704 94.4823C334.09 96.9833 328.39 99.3191 319.556 99.3248C317.16 99.3803 314.781 98.9117 312.585 97.9518Z" fill="white"/>
<path d="M311.394 72.0531C311.511 72.1397 311.648 72.195 311.793 72.2139C311.937 72.2329 312.084 72.2148 312.22 72.1614L312.687 71.962L311.148 84.2848C311.128 84.4431 311.064 84.5927 310.964 84.7165C310.863 84.8404 310.729 84.9336 310.578 84.9855H310.55C310.373 85.0482 309.41 85.3957 307.991 85.9768C307.951 85.6008 307.905 85.2704 307.86 84.9969C307.818 84.7651 307.753 84.538 307.666 84.3189C307.668 84.3038 307.668 84.2885 307.666 84.2734C308.47 83.9429 309.114 83.7037 309.524 83.5498L311.063 71.2783C311.047 71.425 311.069 71.5732 311.127 71.7089C311.185 71.8446 311.277 71.9631 311.394 72.0531Z" fill="black"/>
<path d="M299.687 30.2355C299.867 30.2407 300.044 30.1882 300.193 30.0858C300.342 29.9833 300.454 29.8362 300.513 29.6658L300.553 29.5746C300.587 29.4892 300.656 29.3411 300.764 29.1303C300.872 28.9195 300.98 28.7258 301.134 28.458C299.624 33.8458 298.847 39.4127 298.826 45.008C298.826 49.6853 299.459 53.7417 300.536 56.3111C302.611 61.4897 305.586 63.985 308.031 65.2498C309.011 65.7607 310.059 66.1309 311.143 66.3493C311.448 66.4127 311.756 66.4584 312.066 66.486H312.306H312.266C312.043 66.4733 311.824 66.5476 311.655 66.6932C311.486 66.8388 311.38 67.0444 311.36 67.2665L311.291 68.0926C309.881 67.8658 308.517 67.4138 307.25 66.7538C304.474 65.3352 301.163 62.4696 298.957 56.9434C297.72 54.0208 297.105 49.8164 297.099 44.9796C297.12 39.8624 297.759 34.7665 299.003 29.8025C299.071 29.9262 299.17 30.0307 299.289 30.1064C299.409 30.182 299.545 30.2264 299.687 30.2355Z" fill="black"/>
<path d="M311.867 99.5012C310.647 98.9395 309.516 98.2024 308.51 97.3135C308.51 96.459 308.47 95.6044 308.441 94.8353C309.584 96.1583 310.997 97.221 312.585 97.9516C314.777 98.9119 317.152 99.3824 319.544 99.3303C328.379 99.3303 334.079 96.9888 337.692 94.4878C337.647 95.1657 337.607 95.8779 337.555 96.6185C333.64 99.017 327.866 101.045 319.544 101.039C316.903 101.093 314.283 100.568 311.867 99.5012Z" fill="black"/>
<path d="M338.166 87.0868C338.166 87.1323 338.166 87.1893 338.166 87.2406C337.237 86.8361 336.336 86.4316 335.601 86.0613C335.185 85.8551 334.781 85.625 334.392 85.3719C334.233 85.2664 334.084 85.1463 333.948 85.013C333.871 84.9366 333.802 84.8526 333.743 84.7624C333.655 84.6283 333.599 84.4765 333.577 84.318C333.312 82.1634 333.185 79.9941 333.195 77.8233C333.271 72.9598 333.652 68.1059 334.335 63.29L334.558 63.4154L334.455 63.8541V63.9908C334.455 64.2358 334.421 64.6516 334.404 65.2214C334.387 65.7911 334.37 66.5146 334.352 67.335C334.318 68.9643 334.284 70.9811 334.256 72.9409C334.193 76.8605 334.142 80.5693 334.142 80.5693C334.14 80.7661 334.206 80.9575 334.329 81.1118C334.451 81.2661 334.622 81.3741 334.814 81.4182L335.025 81.4694C335.076 82.2841 335.15 83.0874 335.247 83.885L335.299 83.9249C335.559 84.1005 335.829 84.2603 336.108 84.4034C336.678 84.7111 337.459 85.07 338.28 85.4289C338.251 85.7024 338.217 86.2607 338.166 87.0868Z" fill="black"/>
<path d="M335.857 78.758C335.857 77.6186 335.891 76.086 335.92 74.4168C335.971 71.084 336.034 67.2499 336.091 65.273C336.091 64.7659 336.119 64.3842 336.136 64.1791L336.381 63.1537C336.429 62.9536 336.404 62.7431 336.31 62.5602C336.216 62.3773 336.059 62.2341 335.869 62.1567C334.914 61.768 334.144 61.0306 333.714 60.0943C333.144 58.9549 332.756 57.28 332.756 54.8587C332.756 54.27 332.779 53.6376 332.825 52.9616C333.093 49.2186 333.23 45.9371 333.23 43.1341C333.253 41.0267 333.139 38.92 332.888 36.8274C332.755 35.3959 332.369 33.9994 331.748 32.7027C331.42 32.0403 330.891 31.4981 330.237 31.1531C329.866 30.9722 329.459 30.8787 329.046 30.8797C328.513 30.8919 327.989 31.0161 327.507 31.2443C326.948 31.5042 326.422 31.8293 325.94 32.2128C324.591 33.2479 323.595 34.6747 323.09 36.2976C322.74 37.5416 322.51 38.8158 322.4 40.1033C322.357 40.6328 322.236 41.153 322.041 41.6472C321.989 41.7736 321.902 41.8825 321.79 41.9605C321.618 42.0622 321.419 42.108 321.22 42.0915C320.846 42.0812 320.474 42.0237 320.114 41.9206C318.783 41.5259 317.562 40.8278 316.546 39.8811C315.186 38.652 314.032 37.2133 313.127 35.6196C311.069 32.0818 309.604 27.188 309.61 21.2516C309.612 19.8603 309.688 18.4702 309.838 17.087C309.857 16.9071 309.819 16.7257 309.729 16.5689C309.638 16.4121 309.5 16.2881 309.335 16.2146C309.17 16.1411 308.985 16.122 308.808 16.16C308.631 16.198 308.471 16.2912 308.35 16.4262C303.694 21.6105 301.3 24.9319 300.091 26.8689C299.907 25.6087 299.814 24.3369 299.812 23.0633C299.756 19.5193 300.593 16.0182 302.246 12.8826C304.155 9.42445 307.421 6.18851 313.075 4.0578C316.923 2.56193 321.008 1.76698 325.136 1.7106C328.168 1.67413 331.176 2.25567 333.976 3.41973C336.87 4.66675 339.414 6.6032 341.386 9.05984C345.689 14.3182 348.55 22.8867 348.55 35.9444C348.527 40.7072 348.207 45.464 347.593 50.1871C347.566 50.4103 347.627 50.6352 347.764 50.8138C350.709 54.5071 353.229 58.5204 355.276 62.7777C356.821 66.1959 357.47 68.9989 357.47 71.2891C357.508 72.8512 357.139 74.3964 356.399 75.7727C355.698 77.0001 354.698 78.0307 353.492 78.7694C351.035 80.3418 347.581 81.0482 343.962 81.0482C342.582 81.045 341.203 80.9479 339.836 80.7577L335.846 79.8917C335.846 79.5954 335.851 79.191 335.857 78.758Z" fill="black"/>
<path d="M334.119 80.5696C334.119 80.5696 334.17 76.8608 334.233 72.9412C334.261 70.9814 334.295 68.9533 334.329 67.3353C334.329 66.5149 334.364 65.7971 334.381 65.2217C334.398 64.6463 334.415 64.2361 334.432 63.9911V63.8544L334.535 63.4157L334.312 63.2904C333.389 62.6954 332.647 61.8577 332.169 60.8691C331.428 59.4107 331.029 57.4509 331.029 54.8587C331.029 54.2263 331.029 53.5541 331.103 52.8419C331.366 49.1274 331.502 45.8801 331.502 43.1569C331.502 39.4709 331.246 36.6679 330.739 34.8961C330.591 34.2265 330.303 33.5956 329.895 33.0446C329.779 32.9045 329.636 32.79 329.473 32.7084C329.336 32.6385 329.183 32.6033 329.029 32.6059C328.735 32.6169 328.448 32.6907 328.185 32.8224C327.754 33.0264 327.348 33.2807 326.977 33.5801C326.028 34.3026 325.3 35.2752 324.874 36.3887C324.596 37.1356 324.405 37.9116 324.304 38.7018C324.218 39.2715 324.161 39.8412 324.087 40.4109C324.042 40.8081 323.971 41.202 323.876 41.5902C323.748 42.1665 323.464 42.6966 323.055 43.1227C322.817 43.3517 322.534 43.5283 322.223 43.6411C321.892 43.7503 321.546 43.8042 321.197 43.8006C320.677 43.7903 320.16 43.7137 319.658 43.5728C318.081 43.1103 316.631 42.2894 315.423 41.1743C311.36 37.5794 307.934 30.5948 307.928 21.263C307.928 20.6933 307.928 20.0837 307.968 19.4855C305.831 21.884 303.849 24.4168 302.035 27.0683C301.664 27.638 301.391 28.071 301.174 28.4413C301.02 28.7091 300.895 28.9369 300.804 29.1136C300.712 29.2902 300.627 29.4725 300.593 29.5579L300.553 29.6491C300.501 29.8009 300.408 29.9351 300.284 30.0361C300.159 30.1371 300.009 30.2008 299.849 30.2199C299.69 30.2389 299.529 30.2126 299.384 30.1438C299.239 30.0751 299.117 29.9668 299.031 29.8314C298.982 29.762 298.946 29.6849 298.923 29.6035C298.389 27.4647 298.124 25.2676 298.136 23.0633C298.082 19.2309 298.991 15.4462 300.781 12.0565C302.867 8.26223 306.509 4.70725 312.505 2.4569C316.535 0.893177 320.813 0.0616357 325.136 0.00145206C328.399 -0.0343895 331.636 0.593627 334.649 1.84731C339.146 3.76723 343.09 7.32221 345.854 12.8769C348.619 18.4315 350.266 25.9802 350.266 35.9444C350.242 40.6514 349.932 45.3525 349.337 50.0219C352.275 53.739 354.79 57.7706 356.838 62.0427C358.456 65.6034 359.186 68.6456 359.186 71.2606C359.219 73.1264 358.77 74.9693 357.881 76.6102C356.57 78.8161 354.536 80.5009 352.124 81.3786C349.519 82.3428 346.757 82.8123 343.979 82.763C342.511 82.76 341.045 82.6572 339.59 82.4554H339.528L335.025 81.4698L334.802 81.4242C334.607 81.3822 334.433 81.2743 334.308 81.1186C334.184 80.9629 334.117 80.769 334.119 80.5696ZM339.818 80.7633C341.186 80.9536 342.564 81.0507 343.945 81.0539C347.564 81.0539 351.018 80.3418 353.475 78.7751C354.68 78.0364 355.68 77.0057 356.382 75.7784C357.133 74.3952 357.508 72.8396 357.47 71.2663C357.47 68.9875 356.821 66.1389 355.276 62.7549C353.229 58.4976 350.709 54.4843 347.764 50.791C347.627 50.6124 347.566 50.3875 347.593 50.1643C348.207 45.4412 348.527 40.6844 348.55 35.9216C348.55 22.8639 345.7 14.2727 341.386 9.03703C339.414 6.58039 336.87 4.64394 333.976 3.39692C331.176 2.23286 328.168 1.65132 325.136 1.68779C321.015 1.75052 316.938 2.54928 313.098 4.04638C307.444 6.17709 304.178 9.41304 302.268 12.8712C300.615 16.0068 299.778 19.5079 299.835 23.0519C299.836 24.3255 299.93 25.5973 300.114 26.8575C301.322 24.9205 303.716 21.5991 308.373 16.4148C308.494 16.2778 308.656 16.1834 308.835 16.1455C309.014 16.1075 309.201 16.128 309.367 16.2039C309.534 16.2798 309.672 16.4071 309.761 16.5671C309.849 16.7271 309.884 16.9113 309.86 17.0927C309.711 18.4759 309.635 19.866 309.633 21.2573C309.633 27.1936 311.092 32.0817 313.149 35.6253C314.055 37.219 315.209 38.6577 316.569 39.8867C317.577 40.8255 318.789 41.5195 320.109 41.9149C320.469 42.018 320.84 42.0754 321.214 42.0858C321.413 42.1022 321.612 42.0565 321.784 41.9548C321.896 41.8768 321.984 41.7679 322.035 41.6414C322.23 41.1473 322.351 40.6271 322.394 40.0975C322.495 38.8129 322.716 37.5407 323.055 36.2976C323.561 34.6747 324.556 33.2479 325.905 32.2128C326.388 31.8293 326.914 31.5042 327.473 31.2443C327.954 31.0161 328.479 30.8918 329.012 30.8797C329.424 30.8787 329.832 30.9722 330.203 31.1531C330.857 31.4981 331.385 32.0403 331.713 32.7027C332.334 33.9994 332.72 35.3959 332.853 36.8274C333.105 38.9199 333.219 41.0267 333.195 43.1341C333.195 45.9371 333.058 49.2186 332.79 52.9616C332.745 53.6414 332.722 54.2738 332.722 54.8587C332.722 57.28 333.11 58.9663 333.68 60.0943C334.109 61.0306 334.88 61.768 335.834 62.1567C336.025 62.2341 336.181 62.3773 336.275 62.5602C336.37 62.7431 336.395 62.9536 336.347 63.1536L336.102 64.1791C336.102 64.3842 336.074 64.7488 336.056 65.273C335.999 67.2499 335.937 71.084 335.885 74.4168C335.857 76.086 335.834 77.63 335.823 78.758C335.823 79.2137 335.823 79.5954 335.823 79.8974L339.818 80.7633Z" fill="black"/>
<path d="M293.77 204.526C293.723 205.618 293.965 206.703 294.471 207.671C295.081 208.651 295.81 209.55 296.643 210.349C297.593 211.281 298.604 212.149 299.669 212.947C300.359 213.465 301.077 213.967 301.796 214.439L294.386 237.194C294.352 237.302 294.341 237.415 294.351 237.528C294.362 237.641 294.394 237.75 294.447 237.85C294.5 237.95 294.572 238.039 294.66 238.111C294.747 238.183 294.848 238.237 294.956 238.27L306.526 242.03C306.726 255.795 306.845 269.975 306.845 284.354C306.845 336.049 305.329 390.32 300.798 437.002C284.799 436.751 271.992 434.501 262.143 431.202C252.128 427.852 245.169 423.426 240.985 418.988C238.192 416.025 236.642 413.074 236.192 410.442C236.118 409.898 236.076 409.35 236.066 408.801C236.066 408.009 236.021 406.989 236.021 405.765C236.021 392.878 237.674 357.339 240.501 315.306C241.014 307.621 241.572 299.713 242.159 291.698C242.729 292.632 243.1 293.133 243.105 293.145C243.176 293.25 243.27 293.338 243.379 293.402C243.488 293.466 243.61 293.505 243.736 293.516C243.863 293.527 243.99 293.51 244.108 293.465C244.227 293.42 244.334 293.35 244.422 293.259C244.422 293.259 245.425 292.227 246.907 290.461C248.362 293.722 250.078 296.859 252.037 299.844L247.614 300.448C247.387 300.479 247.182 300.599 247.044 300.781C246.905 300.963 246.845 301.193 246.876 301.42C246.907 301.646 247.027 301.851 247.209 301.99C247.391 302.128 247.621 302.188 247.848 302.157L254.231 301.286C254.373 301.265 254.506 301.208 254.619 301.121C254.776 301.075 254.93 301.02 255.081 300.955C255.575 300.727 256.03 300.423 256.431 300.055C257.301 299.208 258.022 298.22 258.563 297.133C259.866 294.473 260.851 291.67 261.498 288.781C262.41 284.847 263.08 280.861 263.505 276.845L265.215 267.815C265.244 267.703 265.249 267.585 265.231 267.47C265.213 267.355 265.171 267.245 265.109 267.146C265.047 267.048 264.965 266.963 264.868 266.898C264.772 266.832 264.664 266.787 264.549 266.764C264.435 266.742 264.317 266.744 264.203 266.769C264.089 266.794 263.982 266.842 263.887 266.91C263.793 266.978 263.713 267.064 263.653 267.164C263.593 267.264 263.554 267.375 263.539 267.491L262.239 274.219L259.264 268.733C259.589 267.593 259.868 266.454 260.079 265.314C260.091 265.239 260.091 265.162 260.079 265.086C258.996 252.94 257.583 244.167 256.443 236.669C255.303 229.172 254.442 222.996 254.442 215.915C254.458 212.61 254.648 209.309 255.012 206.025C256.865 188.364 259.572 167.512 260.216 162.579C260.307 161.872 260.358 161.491 260.358 161.491C260.383 161.304 260.344 161.114 260.249 160.952C260.155 160.789 260.009 160.662 259.834 160.591L287.193 93.1826L293.787 124.585L280.678 174.617C280.638 174.766 280.64 174.924 280.683 175.072C280.726 175.221 280.809 175.355 280.923 175.46L298.592 192.044C297.402 193.495 296.411 195.099 295.645 196.813C294.508 199.232 293.871 201.855 293.77 204.526ZM299.852 248.491C299.379 248.49 298.917 248.629 298.523 248.891C298.129 249.153 297.822 249.525 297.641 249.962C297.459 250.398 297.412 250.879 297.504 251.342C297.596 251.806 297.823 252.232 298.158 252.566C298.492 252.9 298.918 253.128 299.382 253.219C299.845 253.311 300.326 253.264 300.763 253.082C301.199 252.901 301.572 252.594 301.834 252.201C302.096 251.807 302.235 251.345 302.234 250.872C302.236 250.559 302.175 250.248 302.056 249.957C301.937 249.667 301.762 249.403 301.541 249.181C301.319 248.959 301.056 248.782 300.766 248.662C300.476 248.541 300.166 248.479 299.852 248.479V248.491ZM297.464 278.851C297.464 279.323 297.604 279.784 297.866 280.177C298.129 280.569 298.502 280.875 298.938 281.056C299.374 281.237 299.855 281.284 300.318 281.192C300.781 281.1 301.207 280.872 301.541 280.539C301.875 280.205 302.102 279.779 302.194 279.316C302.286 278.853 302.239 278.373 302.058 277.937C301.878 277.501 301.571 277.128 301.179 276.866C300.786 276.604 300.324 276.464 299.852 276.464C299.539 276.463 299.229 276.524 298.94 276.643C298.65 276.762 298.387 276.936 298.166 277.157C297.944 277.378 297.768 277.64 297.647 277.928C297.527 278.217 297.464 278.527 297.464 278.839V278.851ZM302.234 311.785C302.235 311.313 302.096 310.851 301.834 310.457C301.572 310.064 301.199 309.757 300.763 309.576C300.326 309.394 299.845 309.346 299.382 309.438C298.918 309.53 298.492 309.758 298.158 310.092C297.823 310.426 297.596 310.852 297.504 311.315C297.412 311.779 297.459 312.259 297.641 312.696C297.822 313.132 298.129 313.505 298.523 313.767C298.917 314.029 299.379 314.168 299.852 314.167C300.166 314.167 300.476 314.105 300.766 313.985C301.056 313.864 301.319 313.688 301.541 313.465C301.762 313.243 301.937 312.979 302.056 312.689C302.175 312.399 302.236 312.088 302.234 311.774V311.785ZM296.785 346.954C297.258 346.955 297.721 346.816 298.114 346.554C298.508 346.292 298.815 345.919 298.996 345.483C299.178 345.046 299.226 344.566 299.134 344.102C299.042 343.639 298.814 343.213 298.48 342.879C298.145 342.544 297.719 342.317 297.256 342.225C296.792 342.133 296.311 342.181 295.875 342.362C295.438 342.544 295.065 342.85 294.803 343.244C294.541 343.637 294.402 344.1 294.403 344.572C294.403 345.204 294.654 345.809 295.101 346.256C295.548 346.703 296.154 346.954 296.785 346.954Z" fill="white"/>
<path d="M297.122 85.9819L294.643 86.5516C295.537 86.3067 296.37 86.1187 297.122 85.9819Z" fill="black"/>
<path d="M285.557 90.6195L286.081 90.3005C286.235 90.2036 286.389 90.1239 286.543 90.0327L286.583 90.2264C286.241 90.3517 285.899 90.4885 285.557 90.6195Z" fill="black"/>
<path d="M242.176 291.692C241.606 299.707 241.036 307.643 240.517 315.3C237.668 357.311 236.037 392.872 236.037 405.759C236.037 406.983 236.037 408.003 236.083 408.795C236.092 409.344 236.134 409.892 236.208 410.436C236.659 413.051 238.209 416.002 241.002 418.982C245.185 423.42 252.145 427.846 262.159 431.196C272.008 434.495 284.816 436.745 300.815 436.996C305.346 390.325 306.862 336.043 306.862 284.348C306.862 269.969 306.743 255.789 306.543 242.024L308.253 242.594C308.452 256.182 308.566 270.174 308.566 284.359C308.566 336.38 307.033 391.02 302.439 437.959C302.418 438.171 302.318 438.368 302.158 438.51C301.999 438.653 301.792 438.73 301.579 438.728C279.555 438.483 263.39 434.483 252.39 429.043C250.481 428.105 248.628 427.059 246.838 425.909C246.211 425.505 245.619 425.1 245.043 424.69C243.135 423.347 241.364 421.82 239.754 420.132C236.79 416.993 235.051 413.774 234.516 410.726C234.43 410.107 234.381 409.483 234.367 408.858C234.367 408.032 234.322 406.995 234.322 405.759C234.322 396.512 235.16 375.883 236.659 349.608C237.69 331.514 239.041 310.748 240.649 289.219C241.258 290.25 241.777 291.082 242.176 291.692Z" fill="black"/>
<path d="M334.324 170.509C334.517 166.425 334.785 161.901 335.156 156.933C337.128 130.43 339.465 93.6386 339.909 86.54L357.898 94.3678L346.076 132.208C346.041 132.328 346.032 132.454 346.048 132.578L351.748 176.178L334.324 170.509Z" fill="white"/>
<path d="M359.323 95.5468L347.764 132.538L353.549 176.764L351.748 176.195L346.048 132.595C346.032 132.471 346.042 132.345 346.077 132.225L357.898 94.3846L339.91 86.5568C339.465 93.6554 337.128 130.424 335.156 156.95C334.786 161.918 334.518 166.441 334.324 170.526L332.614 169.956C332.652 169.197 332.692 168.437 332.734 167.678C332.912 164.324 333.144 160.701 333.429 156.808C334.523 142.098 335.709 124.197 336.666 109.983C336.991 104.97 337.288 100.418 337.533 96.6236C337.584 95.8829 337.624 95.1708 337.67 94.4928C337.721 93.7123 337.766 92.966 337.812 92.271C337.949 90.1517 338.057 88.4482 338.131 87.2462C338.131 87.1949 338.131 87.1379 338.131 87.0923C338.183 86.2663 338.217 85.7079 338.234 85.4288V85.2237C338.243 85.0872 338.284 84.9548 338.355 84.8376C338.426 84.7205 338.524 84.6221 338.64 84.5506C338.757 84.4792 338.889 84.4368 339.026 84.427C339.162 84.4172 339.299 84.4404 339.425 84.4945L344.486 86.6992L353.652 90.6872L359.232 93.1142C359.422 93.2015 359.574 93.3542 359.661 93.5446C359.748 93.735 359.763 93.9502 359.705 94.151L359.323 95.5468Z" fill="black"/>
<path d="M380.965 204.526C380.178 197.291 379.008 190.103 377.459 182.991C376.371 178.303 375.077 174.052 373.47 170.982C373.396 170.839 373.282 170.72 373.143 170.639C373.004 170.558 372.844 170.519 372.683 170.526L370.517 102.161V102.07C375.311 104.126 380.304 108.337 385.228 114.444C390.278 120.711 395.265 128.943 399.962 138.827C406.363 152.301 412.228 168.84 417.061 187.6C416.931 187.718 416.84 187.873 416.8 188.044C416.76 188.215 416.774 188.394 416.839 188.557L380.965 204.526Z" fill="white"/>
<path d="M422.943 205.604C423.57 208.672 424.169 211.785 424.739 214.941C424.777 215.144 424.74 215.354 424.635 215.532C424.531 215.71 424.365 215.844 424.169 215.91L423.673 216.058C423.673 215.847 423.673 215.636 423.673 215.425C423.656 212.138 423.412 208.857 422.943 205.604Z" fill="black"/>
<path d="M418.418 187.896C418.375 187.79 418.311 187.693 418.23 187.612C418.149 187.531 418.052 187.466 417.946 187.423C417.84 187.379 417.726 187.357 417.611 187.358C417.496 187.36 417.383 187.384 417.278 187.429C417.187 187.467 417.104 187.521 417.033 187.589C412.216 168.828 406.351 152.267 399.933 138.816C395.237 128.932 390.244 120.694 385.2 114.433C380.275 108.325 375.282 104.115 370.489 102.058C370.369 102.007 370.255 101.95 370.135 101.905C369.925 101.818 369.758 101.652 369.67 101.443C369.583 101.234 369.582 100.998 369.668 100.788C369.754 100.578 369.92 100.411 370.13 100.323C370.339 100.236 370.575 100.235 370.785 100.321L370.859 100.355C376.131 102.537 381.392 106.992 386.533 113.361C394.274 122.961 401.752 136.936 408.329 154.227C413.056 166.821 416.976 179.704 420.065 192.796C419.13 189.742 418.383 187.919 418.355 187.896H418.418Z" fill="black"/>
<path d="M375.59 182.524C374.57 178.257 373.35 174.428 371.971 171.773C371.87 171.574 371.852 171.342 371.92 171.129C371.988 170.916 372.137 170.738 372.335 170.634C372.448 170.575 372.573 170.543 372.7 170.543C372.861 170.536 373.021 170.575 373.16 170.656C373.299 170.736 373.413 170.855 373.487 170.999C375.077 174.069 376.371 178.319 377.476 183.008C379.019 190.114 380.183 197.297 380.965 204.526H380.925C380.872 204.403 380.79 204.295 380.685 204.213C380.191 203.818 379.656 203.478 379.089 203.198C378.816 200.92 378.519 198.498 378.121 195.975C377.454 191.514 376.633 186.791 375.59 182.524Z" fill="black"/>
<path d="M317.561 194.271C316.275 192.94 314.814 191.79 313.218 190.853C312.648 190.551 312.106 190.238 311.57 189.924L318.934 167.301L370.802 184.17L365.524 200.396C361.762 200.105 357.681 199.985 353.594 199.985C339.647 199.985 325.768 201.307 325.757 201.307C325.633 201.319 325.513 201.358 325.406 201.421C325.299 201.484 325.206 201.569 325.136 201.672C325.136 201.672 324.925 201.979 324.594 202.538C324.252 202.076 323.859 201.552 323.42 200.988C321.616 198.623 319.659 196.38 317.561 194.271Z" fill="white"/>
<path d="M296.266 236.897L303.289 215.351C304.275 215.944 305.295 216.481 306.344 216.958C307.767 217.507 309.247 217.901 310.755 218.131C312.499 218.439 314.432 218.701 316.244 218.883C317.207 218.986 318.131 219.071 318.968 219.145C318.877 219.624 318.786 220.114 318.701 220.621C318.682 220.732 318.686 220.845 318.711 220.955C318.737 221.064 318.783 221.168 318.849 221.259C325.797 231.041 336.906 237.923 349.183 242.378C349.981 242.67 350.784 242.95 351.594 243.216L348.174 253.755L296.266 236.897Z" fill="white"/>
<path d="M309.467 242.982L308.259 242.589L306.549 242.019L294.944 238.248C294.836 238.215 294.735 238.161 294.648 238.088C294.561 238.016 294.489 237.928 294.436 237.828C294.383 237.728 294.35 237.618 294.34 237.506C294.329 237.393 294.341 237.279 294.374 237.171L301.784 214.417C302.285 214.747 302.781 215.061 303.277 215.351L296.267 236.898L348.134 253.767L351.554 243.227C352.095 243.409 352.637 243.58 353.184 243.751L349.485 255.106C349.452 255.214 349.399 255.315 349.327 255.403C349.255 255.491 349.166 255.563 349.066 255.616C348.965 255.669 348.856 255.702 348.743 255.712C348.63 255.722 348.516 255.71 348.408 255.675L321.818 247.027L320.16 246.486L309.467 242.982Z" fill="black"/>
<path d="M318.935 167.308L311.571 189.931C311.063 189.635 310.556 189.361 310.043 189.088L317.573 165.963C317.604 165.854 317.658 165.753 317.73 165.665C317.801 165.576 317.89 165.504 317.991 165.451C318.091 165.397 318.201 165.365 318.314 165.355C318.428 165.345 318.542 165.358 318.65 165.393L332.443 169.877L332.637 169.94L334.347 170.509L351.771 176.178L353.572 176.748L372.182 182.798C372.291 182.83 372.392 182.883 372.48 182.955C372.569 183.027 372.641 183.116 372.694 183.216C372.748 183.316 372.78 183.426 372.79 183.54C372.8 183.653 372.787 183.767 372.752 183.875L367.28 200.539L365.536 200.385L370.814 184.16L318.935 167.308Z" fill="black"/>
<path d="M261.743 277.034C261.743 277.29 261.675 277.66 261.612 278.133C261.498 279.073 261.322 280.412 261.077 281.939C260.547 285.46 259.757 288.937 258.711 292.342C258.137 294.319 257.259 296.195 256.106 297.902C255.67 298.534 255.082 299.047 254.396 299.395C254.228 299.464 254.052 299.516 253.872 299.548C251.726 296.34 249.866 292.948 248.315 289.413C248.258 289.271 248.207 289.134 248.155 288.997C249.101 287.807 250.162 286.405 251.256 284.827C254.281 280.561 256.732 275.916 258.546 271.012L261.755 276.88C261.749 276.942 261.749 276.982 261.743 277.034Z" fill="white"/>
<path d="M261.795 276.561C261.766 276.673 261.761 276.791 261.779 276.906C261.797 277.021 261.839 277.131 261.901 277.23C261.963 277.328 262.045 277.413 262.141 277.478C262.237 277.544 262.346 277.589 262.461 277.611C262.575 277.634 262.693 277.632 262.806 277.607C262.92 277.582 263.028 277.534 263.122 277.466C263.217 277.398 263.297 277.312 263.357 277.212C263.417 277.112 263.455 277.001 263.471 276.885V276.845C263.058 280.86 262.399 284.846 261.499 288.781C260.87 291.668 259.904 294.471 258.62 297.133C258.079 298.22 257.359 299.208 256.489 300.055C256.087 300.423 255.632 300.727 255.138 300.955C254.987 301.02 254.833 301.075 254.676 301.121C254.801 301.032 254.898 300.91 254.958 300.77C255.019 300.629 255.039 300.475 255.018 300.323C255.003 300.212 254.967 300.104 254.91 300.007C254.854 299.91 254.778 299.825 254.689 299.757C254.599 299.69 254.497 299.64 254.388 299.612C254.279 299.584 254.166 299.578 254.055 299.594L252.094 299.862C250.135 296.877 248.419 293.739 246.964 290.479C247.344 290.023 247.755 289.521 248.195 288.974C248.247 289.111 248.298 289.248 248.355 289.39C249.912 292.934 251.78 296.333 253.935 299.548C254.115 299.516 254.291 299.464 254.459 299.394C255.145 299.047 255.733 298.534 256.169 297.902C257.322 296.195 258.2 294.319 258.774 292.341C259.82 288.937 260.61 285.46 261.14 281.939C261.385 280.4 261.561 279.09 261.675 278.133C261.738 277.66 261.778 277.29 261.806 277.033C261.806 276.982 261.806 276.942 261.806 276.902L258.597 270.989C258.86 270.242 259.099 269.49 259.321 268.71L262.297 274.196L261.795 276.561Z" fill="black"/>
<path d="M259.612 160.512C259.389 160.481 259.163 160.539 258.983 160.673C258.803 160.807 258.683 161.007 258.649 161.23C258.649 161.23 255.417 185.596 253.291 205.809C252.924 209.153 252.734 212.513 252.721 215.876C252.721 223.077 253.599 229.384 254.744 236.887C255.89 244.39 257.281 253.055 258.352 265.076C257.104 271.839 253.525 278.396 250.15 283.341C248.251 286.124 246.168 288.777 243.915 291.283C243.772 291.066 243.613 290.81 243.425 290.514C242.735 289.42 241.715 287.802 240.546 285.728C237.338 280.092 234.439 274.285 231.86 268.335C225.499 253.745 219.15 233.885 219.155 212.84C219.141 206.916 219.675 201.004 220.751 195.179C224.166 177.114 230.183 159.64 238.614 143.301C246.725 127.64 256.608 114.195 267.113 104.686C273.599 98.8067 280.313 94.4314 286.965 91.9531L287.227 93.1951L259.869 160.603C259.788 160.56 259.702 160.529 259.612 160.512Z" fill="white"/>
<path d="M286.936 91.9184C280.285 94.4081 273.57 98.7549 267.084 104.651C256.585 114.16 246.702 127.605 238.585 143.266C230.154 159.605 224.137 177.079 220.722 195.144C219.646 200.969 219.112 206.881 219.126 212.805C219.126 233.85 225.47 253.71 231.831 268.3C234.426 274.262 237.342 280.077 240.569 285.722C241.76 287.796 242.758 289.414 243.447 290.507C243.635 290.804 243.795 291.077 243.937 291.277C246.19 288.771 248.273 286.118 250.173 283.335C253.547 278.39 257.127 271.832 258.375 265.07C257.303 253.049 255.901 244.361 254.767 236.881C253.633 229.401 252.743 223.071 252.743 215.87C252.756 212.507 252.947 209.146 253.313 205.803C255.422 185.613 258.648 161.229 258.648 161.229C258.678 161.005 258.796 160.802 258.975 160.664C259.155 160.526 259.382 160.465 259.606 160.494C259.678 160.505 259.749 160.524 259.817 160.551C259.991 160.623 260.137 160.749 260.232 160.912C260.327 161.075 260.365 161.265 260.341 161.451C260.341 161.451 260.29 161.833 260.199 162.539C259.555 167.473 256.847 188.33 254.995 205.985C254.631 209.27 254.441 212.571 254.425 215.876C254.425 222.934 255.286 229.133 256.425 236.63C257.565 244.127 258.979 252.901 260.062 265.047C260.073 265.123 260.073 265.2 260.062 265.275C259.851 266.414 259.572 267.554 259.247 268.693C259.025 269.451 258.785 270.203 258.523 270.972C256.712 275.882 254.263 280.533 251.239 284.805C250.144 286.383 249.084 287.784 248.138 288.975C247.701 289.522 247.291 290.023 246.907 290.479C245.425 292.245 244.433 293.265 244.422 293.276C244.334 293.368 244.227 293.438 244.108 293.483C243.99 293.527 243.863 293.545 243.736 293.534C243.61 293.523 243.488 293.484 243.379 293.419C243.269 293.355 243.176 293.267 243.105 293.162C243.105 293.162 242.758 292.65 242.159 291.715C241.76 291.083 241.241 290.251 240.632 289.237C236.74 282.724 233.273 275.966 230.252 269.007C223.834 254.274 217.405 234.215 217.405 212.828C217.397 206.795 217.947 200.774 219.047 194.842C223.658 170.134 233.467 146.343 245.835 127.485C252.014 118.051 258.825 109.853 265.955 103.392C272.311 97.6383 278.922 93.2572 285.574 90.6309C285.916 90.4999 286.258 90.3631 286.6 90.2378L286.936 91.9184Z" fill="black"/>
<path d="M305.956 187.885C305.097 187.892 304.246 188.06 303.448 188.381C302.465 188.784 301.543 189.325 300.713 189.988C300.399 190.233 300.091 190.5 299.795 190.78L282.496 174.537L295.503 124.802C295.534 124.672 295.534 124.538 295.503 124.408L288.23 89.7759L306.219 85.6455C306.276 86.0614 306.327 86.614 306.378 87.2806C306.481 88.6137 306.572 90.4026 306.652 92.5561C306.811 96.8517 306.925 102.577 307.011 108.969C307.187 121.754 307.262 137.198 307.387 149.253C307.467 157.292 307.569 163.821 307.74 167.085C307.946 170.897 308.014 175.352 308.014 179.727C308.014 182.644 307.985 185.533 307.94 188.17C307.296 187.98 306.628 187.884 305.956 187.885Z" fill="white"/>
<path d="M307.854 85.0079C307.9 85.2814 307.945 85.6118 307.985 85.9878C308.025 86.3638 308.054 86.6772 308.082 87.0817C308.23 88.9218 308.344 91.5824 308.441 94.8354C308.47 95.6273 308.492 96.4591 308.51 97.3136C308.561 99.2051 308.601 101.25 308.641 103.415C308.834 114.194 308.92 127.913 309.017 140.013C309.114 152.114 309.228 162.653 309.456 167.012C309.661 170.869 309.729 175.347 309.729 179.745C309.729 182.918 309.695 186.051 309.644 188.86C309.095 188.582 308.523 188.351 307.934 188.171C307.979 185.533 308.008 182.645 308.008 179.728C308.008 175.352 307.94 170.897 307.734 167.086C307.563 163.821 307.461 157.293 307.381 149.254C307.256 137.199 307.182 121.754 307.005 108.97C306.919 102.578 306.805 96.8522 306.646 92.5566C306.566 90.4031 306.475 88.6142 306.372 87.2811C306.321 86.6145 306.27 86.0619 306.213 85.646L288.224 89.7764L295.497 124.409C295.529 124.538 295.529 124.673 295.497 124.802L282.49 174.538L299.789 190.78C299.385 191.171 299.004 191.586 298.649 192.022L280.98 175.438C280.866 175.333 280.783 175.199 280.74 175.05C280.697 174.902 280.695 174.744 280.735 174.595L293.844 124.563L287.25 93.1605L286.987 91.9185L286.634 90.2094L286.594 90.0157L286.44 89.2921C286.399 89.0836 286.436 88.867 286.546 88.6848C286.656 88.5025 286.829 88.3676 287.033 88.3065L294.642 86.5575L297.122 85.9878L306.691 83.7888C306.884 83.7448 307.086 83.7697 307.262 83.8593C307.438 83.9488 307.577 84.0972 307.655 84.2787C307.656 84.2938 307.656 84.3091 307.655 84.3243C307.744 84.545 307.81 84.774 307.854 85.0079Z" fill="black"/>
<path d="M262.473 277.564C262.362 277.543 262.257 277.501 262.162 277.439C262.068 277.378 261.987 277.298 261.924 277.204C261.861 277.111 261.817 277.006 261.795 276.896C261.772 276.785 261.772 276.672 261.795 276.561L262.245 274.22L263.545 267.491C263.56 267.376 263.599 267.265 263.659 267.165C263.719 267.065 263.798 266.978 263.893 266.91C263.987 266.842 264.095 266.794 264.209 266.769C264.323 266.744 264.44 266.743 264.555 266.765C264.669 266.787 264.778 266.833 264.874 266.898C264.97 266.964 265.052 267.049 265.114 267.147C265.177 267.245 265.218 267.356 265.237 267.471C265.255 267.586 265.249 267.703 265.22 267.816L263.51 276.846V276.886C263.49 277 263.447 277.109 263.383 277.206C263.319 277.303 263.236 277.386 263.139 277.449C263.041 277.513 262.932 277.556 262.818 277.576C262.703 277.595 262.586 277.591 262.473 277.564Z" fill="black"/>
<path d="M254.032 299.594C254.143 299.578 254.256 299.584 254.365 299.612C254.474 299.64 254.576 299.689 254.666 299.757C254.755 299.825 254.831 299.91 254.887 300.007C254.944 300.104 254.98 300.212 254.995 300.323C255.016 300.474 254.996 300.629 254.935 300.769C254.875 300.91 254.778 301.031 254.653 301.12C254.54 301.208 254.407 301.265 254.265 301.286L247.882 302.157C247.655 302.188 247.425 302.128 247.243 301.99C247.061 301.851 246.941 301.646 246.91 301.42C246.879 301.193 246.939 300.963 247.078 300.781C247.216 300.599 247.421 300.479 247.648 300.448L252.071 299.844L254.032 299.594Z" fill="black"/>
<path d="M299.852 250.189C299.986 250.189 300.118 250.229 300.229 250.304C300.341 250.378 300.428 250.485 300.479 250.609C300.53 250.733 300.544 250.87 300.517 251.001C300.49 251.133 300.425 251.254 300.33 251.348C300.234 251.443 300.113 251.507 299.981 251.533C299.849 251.558 299.712 251.544 299.589 251.492C299.465 251.439 299.359 251.352 299.285 251.239C299.212 251.127 299.173 250.996 299.174 250.861C299.174 250.772 299.191 250.685 299.226 250.603C299.26 250.521 299.31 250.446 299.373 250.384C299.436 250.321 299.511 250.272 299.593 250.239C299.675 250.205 299.763 250.188 299.852 250.189Z" fill="black"/>
<path d="M299.852 253.249C299.38 253.25 298.917 253.111 298.524 252.849C298.13 252.588 297.823 252.215 297.642 251.779C297.46 251.343 297.412 250.863 297.503 250.399C297.595 249.936 297.822 249.51 298.156 249.176C298.489 248.841 298.915 248.613 299.378 248.521C299.842 248.428 300.322 248.475 300.759 248.656C301.196 248.836 301.569 249.142 301.832 249.535C302.094 249.928 302.235 250.389 302.235 250.862C302.235 251.494 301.984 252.1 301.537 252.548C301.091 252.995 300.485 253.247 299.852 253.249ZM299.852 251.54C299.986 251.54 300.117 251.5 300.229 251.425C300.341 251.351 300.427 251.245 300.479 251.121C300.53 250.997 300.544 250.861 300.517 250.729C300.491 250.598 300.427 250.477 300.332 250.382C300.237 250.287 300.116 250.223 299.984 250.197C299.853 250.171 299.717 250.184 299.593 250.235C299.469 250.287 299.363 250.374 299.288 250.485C299.214 250.597 299.174 250.728 299.174 250.862C299.173 250.951 299.19 251.039 299.224 251.122C299.258 251.205 299.308 251.28 299.371 251.343C299.434 251.406 299.509 251.456 299.592 251.49C299.674 251.523 299.763 251.54 299.852 251.54Z" fill="black"/>
<path d="M299.852 278.162C299.986 278.162 300.117 278.202 300.229 278.276C300.34 278.351 300.427 278.457 300.479 278.581C300.53 278.705 300.543 278.841 300.517 278.972C300.491 279.104 300.427 279.225 300.332 279.319C300.237 279.414 300.116 279.479 299.984 279.505C299.853 279.531 299.716 279.518 299.592 279.466C299.469 279.415 299.363 279.328 299.288 279.217C299.214 279.105 299.174 278.974 299.174 278.84C299.173 278.751 299.19 278.662 299.224 278.58C299.258 278.497 299.308 278.422 299.371 278.359C299.434 278.296 299.509 278.246 299.592 278.212C299.674 278.178 299.763 278.161 299.852 278.162Z" fill="black"/>
<path d="M299.852 276.452C300.324 276.452 300.786 276.592 301.179 276.854C301.571 277.117 301.878 277.49 302.058 277.926C302.239 278.362 302.286 278.842 302.194 279.305C302.102 279.768 301.875 280.193 301.541 280.527C301.207 280.861 300.781 281.088 300.318 281.18C299.855 281.273 299.374 281.225 298.938 281.045C298.502 280.864 298.129 280.558 297.866 280.165C297.604 279.773 297.464 279.311 297.464 278.839C297.463 278.526 297.524 278.215 297.644 277.925C297.764 277.635 297.94 277.371 298.162 277.15C298.383 276.928 298.647 276.752 298.937 276.632C299.227 276.513 299.538 276.451 299.852 276.452ZM299.852 279.511C299.986 279.511 300.118 279.472 300.229 279.397C300.341 279.322 300.428 279.216 300.479 279.092C300.53 278.967 300.543 278.831 300.517 278.699C300.49 278.568 300.425 278.447 300.329 278.352C300.234 278.258 300.113 278.193 299.981 278.168C299.849 278.142 299.712 278.157 299.588 278.209C299.465 278.261 299.359 278.349 299.285 278.461C299.211 278.573 299.173 278.705 299.174 278.839C299.174 278.928 299.191 279.016 299.225 279.098C299.26 279.18 299.31 279.254 299.373 279.317C299.436 279.379 299.511 279.429 299.593 279.462C299.675 279.495 299.763 279.512 299.852 279.511Z" fill="black"/>
<path d="M299.852 311.097C299.986 311.097 300.117 311.136 300.229 311.211C300.34 311.285 300.427 311.391 300.479 311.515C300.53 311.639 300.543 311.775 300.517 311.907C300.491 312.038 300.427 312.159 300.332 312.254C300.237 312.349 300.116 312.413 299.984 312.44C299.853 312.466 299.716 312.452 299.592 312.401C299.469 312.35 299.363 312.263 299.288 312.151C299.214 312.04 299.174 311.909 299.174 311.775C299.173 311.685 299.19 311.597 299.224 311.514C299.258 311.432 299.308 311.357 299.371 311.294C299.434 311.23 299.509 311.181 299.592 311.147C299.674 311.113 299.763 311.096 299.852 311.097Z" fill="black"/>
<path d="M297.464 311.775C297.463 311.302 297.602 310.84 297.863 310.447C298.125 310.054 298.498 309.747 298.934 309.565C299.37 309.384 299.851 309.336 300.314 309.427C300.778 309.518 301.204 309.745 301.539 310.079C301.873 310.413 302.101 310.838 302.194 311.301C302.286 311.764 302.239 312.245 302.059 312.681C301.878 313.118 301.572 313.491 301.179 313.753C300.786 314.016 300.325 314.156 299.852 314.156C299.539 314.157 299.228 314.096 298.938 313.976C298.649 313.857 298.385 313.682 298.164 313.461C297.942 313.239 297.766 312.977 297.646 312.687C297.526 312.398 297.464 312.088 297.464 311.775ZM299.852 312.447C299.986 312.447 300.118 312.407 300.229 312.332C300.341 312.257 300.428 312.151 300.479 312.027C300.53 311.903 300.543 311.766 300.517 311.635C300.49 311.503 300.425 311.382 300.329 311.288C300.234 311.193 300.113 311.129 299.981 311.103C299.849 311.078 299.712 311.092 299.588 311.144C299.465 311.196 299.359 311.284 299.285 311.396C299.211 311.509 299.173 311.64 299.174 311.775C299.174 311.863 299.191 311.951 299.225 312.033C299.26 312.115 299.31 312.19 299.373 312.252C299.436 312.315 299.511 312.364 299.593 312.397C299.675 312.431 299.763 312.448 299.852 312.447Z" fill="black"/>
<path d="M296.786 343.872C296.92 343.871 297.052 343.91 297.164 343.984C297.276 344.057 297.364 344.163 297.416 344.287C297.468 344.41 297.483 344.547 297.457 344.679C297.432 344.811 297.368 344.932 297.273 345.027C297.178 345.123 297.057 345.188 296.926 345.215C296.794 345.241 296.657 345.228 296.533 345.177C296.409 345.126 296.302 345.039 296.228 344.927C296.153 344.816 296.113 344.684 296.113 344.55C296.113 344.371 296.184 344.2 296.31 344.073C296.436 343.946 296.607 343.874 296.786 343.872Z" fill="black"/>
<path d="M296.785 342.163C297.258 342.161 297.72 342.3 298.114 342.562C298.507 342.824 298.814 343.196 298.996 343.632C299.177 344.068 299.226 344.548 299.134 345.012C299.043 345.475 298.816 345.901 298.482 346.236C298.148 346.57 297.722 346.798 297.259 346.89C296.796 346.983 296.315 346.936 295.878 346.756C295.442 346.575 295.068 346.269 294.806 345.876C294.543 345.484 294.403 345.022 294.403 344.55C294.403 343.918 294.654 343.311 295.1 342.864C295.547 342.416 296.153 342.164 296.785 342.163ZM296.785 345.222C296.92 345.223 297.052 345.184 297.164 345.11C297.277 345.036 297.365 344.93 297.417 344.806C297.469 344.682 297.483 344.545 297.457 344.413C297.431 344.281 297.366 344.16 297.271 344.065C297.175 343.969 297.054 343.905 296.922 343.879C296.79 343.853 296.653 343.867 296.529 343.919C296.405 343.971 296.299 344.059 296.225 344.171C296.151 344.283 296.112 344.415 296.113 344.55C296.11 344.64 296.125 344.73 296.157 344.814C296.19 344.898 296.239 344.975 296.302 345.04C296.364 345.105 296.439 345.156 296.523 345.191C296.606 345.227 296.695 345.245 296.785 345.245V345.222Z" fill="black"/>
<path d="M357.926 271.337C358.151 271.337 358.366 271.426 358.525 271.584C358.684 271.742 358.774 271.956 358.776 272.18C358.782 272.272 358.795 272.364 358.816 272.454C359.108 273.666 359.472 274.861 359.904 276.031C361.705 281.102 365.649 289.881 371.799 296.615C371.922 296.785 371.977 296.995 371.955 297.204C371.932 297.412 371.834 297.606 371.678 297.746C371.523 297.887 371.321 297.966 371.111 297.967C370.901 297.969 370.697 297.893 370.54 297.754C365.952 292.73 362.606 286.713 360.394 281.802C359.458 279.743 358.631 277.636 357.915 275.49C357.636 274.658 357.43 273.963 357.294 273.422C357.22 273.154 357.168 272.921 357.128 272.727C357.091 272.551 357.07 272.372 357.066 272.191C357.066 272.079 357.088 271.967 357.131 271.863C357.175 271.759 357.238 271.665 357.318 271.585C357.398 271.506 357.493 271.443 357.597 271.4C357.702 271.358 357.814 271.336 357.926 271.337Z" fill="black"/>
<path d="M312.87 70.0192L313.018 68.3101L315.868 68.4867C315.497 68.7202 315.076 68.9595 314.637 69.1874C314.027 69.5064 313.4 69.7799 312.87 70.0192Z" fill="black"/>
<path d="M312.288 66.5323H312.454L317.925 66.8741C318.05 66.8822 318.171 66.9174 318.28 66.9773C318.39 67.0372 318.485 67.1202 318.559 67.2207C318.632 67.3211 318.683 67.4364 318.708 67.5586C318.732 67.6808 318.73 67.8069 318.701 67.928C318.599 68.2872 318.402 68.612 318.131 68.8681C317.648 69.3301 317.11 69.7301 316.529 70.0588C315.607 70.5974 314.655 71.0843 313.679 71.5172C313.28 71.6995 312.932 71.8476 312.676 71.9559L312.209 72.1553C312.073 72.2088 311.926 72.227 311.781 72.2081C311.636 72.1892 311.499 72.1339 311.382 72.0473C311.264 71.9608 311.171 71.8458 311.11 71.7132C311.049 71.5806 311.023 71.4347 311.034 71.2893L311.297 68.1502L311.365 67.3242C311.382 67.0968 311.49 66.8857 311.663 66.7372C311.836 66.5887 312.061 66.515 312.288 66.5323ZM315.868 68.4636L313.018 68.287L312.87 69.9961C313.4 69.7568 314.01 69.4606 314.637 69.1415C315.076 68.9364 315.497 68.6972 315.868 68.4636Z" fill="black"/>
<path d="M311.058 216.457C309.684 216.254 308.336 215.9 307.039 215.403C303.657 213.827 300.554 211.71 297.851 209.136C297.119 208.441 296.477 207.657 295.942 206.801C295.597 206.092 295.438 205.308 295.48 204.522C295.59 202.086 296.187 199.698 297.236 197.497C298.347 195.036 299.949 192.729 301.75 191.35C302.454 190.787 303.233 190.325 304.064 189.977C304.664 189.734 305.304 189.606 305.951 189.601C307.007 189.644 308.038 189.934 308.96 190.45C310.009 190.974 311.132 191.692 312.414 192.376C313.763 193.162 315.005 194.119 316.108 195.224C317.444 196.528 318.711 197.901 319.904 199.337C321.494 201.229 322.862 203.041 323.717 204.214C321.705 208.43 320.225 212.879 319.311 217.46H318.969C316.598 217.232 313.583 216.913 311.058 216.457Z" fill="white"/>
<path d="M310.755 218.143C309.247 217.912 307.768 217.519 306.344 216.969C305.296 216.492 304.276 215.956 303.289 215.363C302.793 215.072 302.297 214.759 301.796 214.428C301.077 213.956 300.359 213.454 299.669 212.936C298.604 212.138 297.593 211.27 296.643 210.338C295.81 209.539 295.081 208.64 294.471 207.66C293.965 206.692 293.723 205.607 293.77 204.516C293.885 201.837 294.54 199.209 295.697 196.79C296.462 195.077 297.453 193.473 298.644 192.022C298.999 191.586 299.379 191.171 299.783 190.78C300.08 190.501 300.388 190.21 300.701 189.988C301.532 189.325 302.453 188.784 303.437 188.381C304.234 188.06 305.085 187.892 305.945 187.886C306.621 187.889 307.293 187.991 307.94 188.188C308.529 188.368 309.101 188.599 309.65 188.877L309.73 188.917C309.838 188.968 309.946 189.031 310.049 189.088C310.562 189.35 311.069 189.658 311.576 189.931C312.083 190.204 312.659 190.558 313.223 190.86C314.82 191.796 316.281 192.946 317.567 194.278C319.669 196.391 321.63 198.641 323.437 201.012C323.876 201.582 324.27 202.1 324.612 202.561C324.378 202.972 324.042 203.53 323.722 204.236C322.867 203.063 321.499 201.251 319.909 199.36C318.717 197.923 317.45 196.55 316.113 195.246C315.01 194.142 313.769 193.184 312.42 192.398C311.137 191.714 310.015 190.996 308.966 190.472C308.043 189.957 307.012 189.666 305.956 189.623C305.309 189.629 304.669 189.756 304.07 189.999C303.238 190.347 302.459 190.809 301.756 191.372C299.954 192.751 298.336 195.058 297.241 197.52C296.193 199.714 295.594 202.097 295.48 204.527C295.438 205.313 295.597 206.098 295.942 206.806C296.477 207.662 297.119 208.447 297.851 209.142C300.553 211.715 303.657 213.832 307.039 215.408C308.336 215.906 309.684 216.259 311.058 216.462C313.583 216.918 316.598 217.237 318.969 217.442H319.311C319.191 218.012 319.077 218.582 318.969 219.151C318.131 219.077 317.208 218.992 316.244 218.889C314.432 218.701 312.5 218.451 310.755 218.143Z" fill="black"/>
<path d="M416.845 188.575L416.884 188.678C416.919 188.769 416.976 188.906 417.044 189.088C417.181 189.453 417.38 189.994 417.614 190.695C418.093 192.085 418.754 194.113 419.375 196.563C421.014 202.717 421.875 209.052 421.94 215.42C421.94 223.299 420.407 231.708 415.733 238.955C414.74 240.369 413.428 241.53 411.903 242.344C409.864 243.49 407.688 244.375 405.428 244.976C400.338 246.412 393.846 247.187 386.687 247.187C374.109 247.157 361.626 244.996 349.77 240.795C337.801 236.465 327.125 229.805 320.451 220.57C322.298 210.048 325.501 204.35 326.339 202.989H326.544L328.299 202.818C329.815 202.693 331.976 202.533 334.569 202.368C339.761 202.037 346.687 201.707 353.606 201.707C357.835 201.707 362.059 201.832 365.883 202.151C369.203 202.362 372.495 202.898 375.71 203.752C377.112 204.105 378.434 204.72 379.608 205.564C379.756 205.689 379.942 205.759 380.136 205.763C380.329 205.768 380.518 205.706 380.672 205.588C380.826 205.471 380.934 205.304 380.98 205.117C381.026 204.929 381.007 204.731 380.925 204.556H380.965L416.845 188.575Z" fill="white"/>
<path d="M383.148 248.816C372.992 248.469 362.928 246.766 353.224 243.751C352.654 243.58 352.135 243.409 351.594 243.227C350.785 242.957 349.981 242.678 349.183 242.389C336.906 237.934 325.814 231.052 318.849 221.27C318.784 221.179 318.737 221.076 318.711 220.966C318.686 220.857 318.682 220.743 318.701 220.632C318.786 220.125 318.878 219.635 318.969 219.157C319.077 218.587 319.191 218.017 319.311 217.448C320.225 212.867 321.705 208.418 323.717 204.202C324.064 203.495 324.372 202.937 324.606 202.527C324.936 201.957 325.136 201.678 325.147 201.661C325.218 201.559 325.31 201.473 325.418 201.41C325.525 201.347 325.645 201.308 325.769 201.296C325.769 201.296 339.659 199.969 353.606 199.969C357.693 199.969 361.774 200.089 365.536 200.379L367.28 200.533C368.129 200.618 368.99 200.71 369.77 200.812C371.941 201.069 374.089 201.494 376.194 202.083C377.192 202.374 378.161 202.755 379.089 203.222C379.656 203.502 380.191 203.842 380.685 204.236C380.79 204.319 380.873 204.427 380.925 204.549C381.007 204.725 381.026 204.923 380.98 205.11C380.934 205.298 380.825 205.465 380.672 205.582C380.518 205.7 380.329 205.762 380.136 205.757C379.942 205.753 379.756 205.682 379.608 205.558C378.434 204.714 377.112 204.099 375.71 203.746C372.495 202.892 369.203 202.356 365.883 202.145C362.059 201.826 357.835 201.701 353.606 201.701C346.687 201.701 339.761 202.031 334.569 202.362C331.976 202.527 329.815 202.687 328.299 202.812L326.544 202.96H326.339C325.501 204.322 322.297 210.019 320.451 220.541C327.125 229.776 337.823 236.436 349.77 240.766C361.626 244.967 374.109 247.128 386.687 247.158C393.846 247.158 400.338 246.383 405.428 244.947C407.692 244.352 409.871 243.474 411.914 242.333C413.439 241.518 414.751 240.357 415.744 238.943C420.418 231.696 421.951 223.287 421.951 215.408C421.885 209.04 421.021 202.705 419.381 196.551C418.743 194.084 418.098 192.073 417.62 190.683C417.38 189.982 417.181 189.441 417.05 189.076C416.981 188.894 416.924 188.757 416.89 188.666L416.85 188.563C416.785 188.4 416.771 188.221 416.811 188.05C416.851 187.879 416.942 187.724 417.072 187.606C417.144 187.539 417.227 187.485 417.318 187.447C417.423 187.401 417.536 187.377 417.651 187.376C417.766 187.375 417.88 187.397 417.986 187.44C418.092 187.484 418.189 187.548 418.27 187.63C418.351 187.711 418.415 187.808 418.458 187.914C418.458 187.914 419.21 189.76 420.167 192.813C421.441 197.004 422.394 201.285 423.017 205.621C423.482 208.874 423.722 212.156 423.735 215.442C423.735 215.653 423.735 215.864 423.735 216.075C423.656 223.988 422.026 232.477 417.266 239.906C416.127 241.545 414.618 242.894 412.86 243.842C410.011 245.512 406.203 246.765 401.763 247.614C396.817 248.508 391.799 248.939 386.773 248.901C386.169 248.901 385.559 248.901 384.943 248.901C384.328 248.901 383.723 248.839 383.148 248.816Z" fill="black"/>
<path d="M152.77 163.897C146.071 163.819 140.705 158.328 140.783 151.632C140.862 144.937 146.355 139.573 153.053 139.652C159.752 139.73 165.118 145.221 165.04 151.916C164.961 158.611 159.468 163.975 152.77 163.897Z" fill="white"/>
<path d="M147.128 146.018C148.695 144.454 149.938 142.596 150.785 140.551C151.632 138.506 152.067 136.313 152.064 134.1C152.065 133.873 152.155 133.657 152.315 133.496C152.475 133.335 152.692 133.245 152.919 133.245C153.145 133.245 153.363 133.335 153.523 133.496C153.682 133.657 153.772 133.873 153.774 134.1C153.77 136.315 154.203 138.509 155.049 140.557C155.895 142.604 157.136 144.465 158.702 146.032C160.268 147.6 162.128 148.843 164.175 149.691C166.223 150.539 168.417 150.975 170.634 150.974C170.86 150.976 171.077 151.066 171.238 151.225C171.398 151.385 171.488 151.602 171.488 151.829C171.488 152.056 171.398 152.273 171.238 152.433C171.078 152.594 170.86 152.684 170.634 152.684C166.166 152.682 161.882 154.453 158.72 157.608C155.559 160.762 153.78 165.042 153.774 169.507C153.774 169.734 153.684 169.951 153.523 170.111C153.363 170.272 153.145 170.362 152.919 170.362C152.806 170.363 152.695 170.341 152.591 170.298C152.487 170.255 152.393 170.191 152.315 170.111C152.154 169.951 152.064 169.734 152.064 169.507C152.058 165.043 150.279 160.764 147.119 157.61C143.959 154.455 139.676 152.684 135.21 152.684C134.983 152.683 134.766 152.593 134.606 152.433C134.446 152.272 134.356 152.055 134.355 151.829C134.355 151.602 134.445 151.385 134.605 151.225C134.765 151.064 134.983 150.974 135.21 150.974C137.425 150.974 139.618 150.536 141.664 149.685C143.709 148.835 145.566 147.588 147.128 146.018ZM152.919 163.93C153.819 161.083 155.392 158.496 157.504 156.386C159.616 154.276 162.206 152.705 165.053 151.806C162.205 150.906 159.616 149.334 157.504 147.223C155.392 145.112 153.819 142.524 152.919 139.677C152.019 142.523 150.447 145.111 148.336 147.222C146.225 149.333 143.636 150.905 140.79 151.806C143.636 152.706 146.224 154.277 148.336 156.387C150.447 158.497 152.019 161.084 152.919 163.93Z" fill="black"/>
<path d="M449.134 344.145C448.234 341.3 446.662 338.713 444.55 336.603C442.439 334.493 439.851 332.921 437.005 332.022C439.851 331.121 442.44 329.548 444.551 327.437C446.662 325.326 448.233 322.738 449.134 319.893C450.034 322.738 451.606 325.326 453.717 327.437C455.828 329.548 458.416 331.121 461.263 332.022C458.416 332.921 455.828 334.493 453.717 336.603C451.606 338.713 450.034 341.3 449.134 344.145Z" fill="white"/>
<path d="M467.447 331.417C467.607 331.577 467.697 331.795 467.697 332.021C467.696 332.248 467.606 332.464 467.447 332.625C467.368 332.705 467.274 332.768 467.17 332.811C467.066 332.854 466.955 332.876 466.842 332.876C464.629 332.876 462.437 333.312 460.393 334.158C458.348 335.005 456.49 336.246 454.925 337.81C453.36 339.374 452.118 341.231 451.271 343.275C450.424 345.319 449.988 347.51 449.988 349.722C449.988 349.949 449.898 350.166 449.738 350.326C449.578 350.487 449.36 350.577 449.133 350.577C448.907 350.577 448.689 350.487 448.529 350.326C448.368 350.166 448.278 349.949 448.278 349.722C448.278 347.509 447.842 345.318 446.995 343.274C446.148 341.23 444.906 339.372 443.34 337.808C441.774 336.244 439.916 335.003 437.87 334.157C435.825 333.31 433.632 332.875 431.419 332.876C431.192 332.874 430.975 332.784 430.814 332.625C430.659 332.462 430.571 332.246 430.569 332.021C430.57 331.796 430.658 331.579 430.814 331.417C430.975 331.258 431.192 331.168 431.419 331.167C433.632 331.167 435.825 330.732 437.87 329.886C439.916 329.04 441.774 327.799 443.34 326.235C444.906 324.67 446.148 322.813 446.995 320.769C447.842 318.724 448.278 316.533 448.278 314.32C448.278 314.208 448.299 314.097 448.342 313.993C448.385 313.888 448.448 313.794 448.527 313.714C448.607 313.635 448.701 313.572 448.805 313.529C448.909 313.487 449.021 313.465 449.133 313.466C449.246 313.465 449.357 313.487 449.461 313.529C449.566 313.572 449.66 313.635 449.74 313.714C449.819 313.794 449.882 313.888 449.925 313.993C449.967 314.097 449.989 314.208 449.988 314.32C449.988 316.533 450.424 318.723 451.271 320.767C452.118 322.811 453.36 324.668 454.925 326.233C456.49 327.797 458.348 329.038 460.393 329.884C462.437 330.731 464.629 331.167 466.842 331.167C466.955 331.166 467.066 331.188 467.17 331.231C467.274 331.274 467.368 331.337 467.447 331.417ZM449.133 319.892C448.233 322.738 446.661 325.326 444.55 327.437C442.439 329.548 439.851 331.12 437.004 332.021C439.851 332.921 442.439 334.492 444.55 336.602C446.661 338.712 448.233 341.299 449.133 344.145C450.034 341.299 451.606 338.712 453.717 336.602C455.828 334.492 458.416 332.921 461.262 332.021C458.416 331.12 455.828 329.548 453.717 327.437C451.606 325.326 450.034 322.738 449.133 319.892Z" fill="black"/>
<path d="M159.872 504.826C159.872 501.498 160.86 498.244 162.71 495.476C164.56 492.709 167.189 490.552 170.266 489.278C173.343 488.004 176.728 487.671 179.994 488.32C183.26 488.97 186.26 490.573 188.615 492.926C190.969 495.28 192.573 498.279 193.223 501.543C193.872 504.808 193.539 508.191 192.265 511.267C190.99 514.342 188.832 516.97 186.063 518.819C183.295 520.668 180.039 521.655 176.709 521.655C174.496 521.663 172.303 521.233 170.257 520.39C168.211 519.547 166.352 518.307 164.787 516.743C163.222 515.179 161.982 513.321 161.139 511.275C160.295 509.23 159.865 507.038 159.872 504.826Z" fill="#44B4B4"/>
<path d="M442.032 381.57C442.033 383.668 441.411 385.72 440.245 387.465C439.08 389.21 437.422 390.571 435.483 391.375C433.543 392.178 431.409 392.389 429.35 391.98C427.29 391.571 425.399 390.56 423.914 389.076C422.43 387.592 421.419 385.702 421.009 383.643C420.6 381.585 420.811 379.452 421.615 377.513C422.419 375.575 423.78 373.918 425.526 372.753C427.272 371.587 429.325 370.966 431.424 370.967C434.238 370.967 436.936 372.084 438.925 374.073C440.914 376.061 442.032 378.758 442.032 381.57ZM424.362 381.57C424.361 382.961 424.773 384.322 425.546 385.48C426.319 386.638 427.418 387.541 428.704 388.074C429.99 388.607 431.406 388.747 432.771 388.477C434.137 388.206 435.392 387.536 436.377 386.552C437.362 385.569 438.033 384.315 438.305 382.95C438.577 381.585 438.438 380.17 437.905 378.884C437.373 377.598 436.471 376.499 435.313 375.726C434.155 374.952 432.794 374.539 431.402 374.539C429.539 374.544 427.755 375.287 426.439 376.604C425.124 377.922 424.385 379.708 424.385 381.57H424.362Z" fill="#02607E"/>
<path d="M477.456 303.281C475.358 303.281 473.307 302.659 471.563 301.494C469.818 300.329 468.459 298.674 467.656 296.736C466.853 294.799 466.643 292.667 467.052 290.611C467.461 288.554 468.472 286.665 469.955 285.182C471.439 283.699 473.329 282.689 475.386 282.28C477.444 281.871 479.577 282.081 481.515 282.884C483.453 283.686 485.11 285.045 486.275 286.789C487.441 288.532 488.063 290.582 488.063 292.679C488.061 295.49 486.943 298.186 484.954 300.174C482.965 302.162 480.268 303.28 477.456 303.281ZM477.456 285.62C476.063 285.619 474.701 286.031 473.543 286.804C472.384 287.576 471.481 288.675 470.948 289.961C470.414 291.247 470.274 292.662 470.546 294.027C470.817 295.393 471.488 296.647 472.472 297.631C473.457 298.616 474.712 299.286 476.078 299.557C477.444 299.828 478.86 299.689 480.146 299.155C481.433 298.622 482.532 297.719 483.305 296.562C484.078 295.404 484.49 294.043 484.489 292.65C484.483 290.79 483.739 289.009 482.421 287.696C481.102 286.383 479.316 285.647 477.456 285.649V285.62Z" fill="#02607E"/>
<path d="M181.702 85.4583C181.488 85.5241 181.308 85.6715 181.201 85.8687C181.095 86.0658 181.07 86.2969 181.132 86.5122C182.888 92.4144 184.905 98.4761 186.011 101.695L162.916 86.3413C162.776 86.2474 162.611 86.1978 162.443 86.1989H20.263C16.4838 86.1989 12.8594 84.6983 10.1871 82.0273C7.51488 79.3563 6.01366 75.7336 6.01366 71.9562V35.7227C6.01366 31.9453 7.51488 28.3226 10.1871 25.6516C12.8594 22.9805 16.4838 21.48 20.263 21.48H177.142C180.921 21.48 184.546 22.9805 187.218 25.6516C189.89 28.3226 191.392 31.9453 191.392 35.7227V71.9391C191.397 74.923 190.464 77.8333 188.726 80.259C186.987 82.6847 184.53 84.5034 181.702 85.4583ZM83.9859 66.0882H151.693C151.92 66.0882 152.137 65.9981 152.298 65.8379C152.458 65.6776 152.548 65.4602 152.548 65.2336C152.548 65.007 152.458 64.7896 152.298 64.6293C152.137 64.4691 151.92 64.379 151.693 64.379H83.9859C83.7592 64.379 83.5417 64.4691 83.3814 64.6293C83.221 64.7896 83.131 65.007 83.131 65.2336C83.131 65.4602 83.221 65.6776 83.3814 65.8379C83.5417 65.9981 83.7592 66.0882 83.9859 66.0882ZM39.7161 52.4152H151.693C151.92 52.4152 152.137 52.3251 152.298 52.1649C152.458 52.0046 152.548 51.7872 152.548 51.5606C152.548 51.3339 152.458 51.1166 152.298 50.9563C152.137 50.7961 151.92 50.706 151.693 50.706H39.7161C39.4894 50.706 39.2719 50.7961 39.1116 50.9563C38.9512 51.1166 38.8612 51.3339 38.8612 51.5606C38.8612 51.7872 38.9512 52.0046 39.1116 52.1649C39.2719 52.3251 39.4894 52.4152 39.7161 52.4152ZM39.7161 38.7023H135.751C135.978 38.7023 136.195 38.6122 136.355 38.452C136.516 38.2917 136.606 38.0744 136.606 37.8477C136.606 37.6211 136.516 37.4037 136.355 37.2434C136.195 37.0832 135.978 36.9931 135.751 36.9931H39.7161C39.4894 36.9931 39.2719 37.0832 39.1116 37.2434C38.9512 37.4037 38.8612 37.6211 38.8612 37.8477C38.8612 38.0744 38.9512 38.2917 39.1116 38.452C39.2719 38.6122 39.4894 38.7023 39.7161 38.7023Z" fill="white"/>
<path d="M185.755 85.3554C184.888 85.91 183.97 86.3793 183.013 86.7568C183.178 87.3266 183.344 87.8621 183.515 88.409C184.58 91.8842 185.686 95.2797 186.575 97.963C187.145 99.6152 187.596 101 187.932 101.951C188.097 102.441 188.228 102.823 188.32 103.09L188.456 103.489C188.513 103.658 188.516 103.841 188.465 104.012C188.413 104.182 188.31 104.333 188.169 104.442C188.028 104.552 187.857 104.615 187.678 104.623C187.5 104.631 187.324 104.583 187.174 104.486L170.075 93.1205L162.175 87.8735H20.2516C16.019 87.8735 11.9597 86.1928 8.96677 83.2013C5.97382 80.2097 4.2924 76.1523 4.2924 71.9216V35.7223C4.2924 31.4917 5.97382 27.4342 8.96677 24.4427C11.9597 21.4511 16.019 19.7705 20.2516 19.7705H177.142C181.375 19.7705 185.434 21.4511 188.427 24.4427C191.42 27.4342 193.102 31.4917 193.102 35.7223V71.9387C193.103 74.6119 192.431 77.2423 191.147 79.5872C189.863 81.9321 188.008 83.9159 185.755 85.3554ZM191.392 35.7223C191.392 31.9449 189.89 28.3223 187.218 25.6512C184.546 22.9802 180.922 21.4796 177.142 21.4796H20.2516C16.4725 21.4796 12.8481 22.9802 10.1759 25.6512C7.5036 28.3223 6.00232 31.9449 6.00232 35.7223V71.9387C6.00232 75.7161 7.5036 79.3388 10.1759 82.0098C12.8481 84.6809 16.4725 86.1814 20.2516 86.1814H162.454C162.623 86.1803 162.787 86.2299 162.927 86.3239L186.023 101.678C184.917 98.4416 182.899 92.397 181.144 86.4948C181.081 86.2795 181.106 86.0484 181.213 85.8512C181.319 85.6541 181.499 85.5067 181.714 85.4408C184.537 84.4875 186.991 82.6732 188.729 80.2531C190.467 77.8331 191.402 74.9292 191.403 71.9501L191.392 35.7223Z" fill="black"/>
<path d="M39.7161 36.9702H135.751C135.978 36.9702 136.195 37.0602 136.355 37.2205C136.516 37.3808 136.606 37.5981 136.606 37.8248C136.606 38.0514 136.516 38.2688 136.355 38.429C136.195 38.5893 135.978 38.6793 135.751 38.6793H39.7161C39.4894 38.6793 39.2719 38.5893 39.1116 38.429C38.9512 38.2688 38.8612 38.0514 38.8612 37.8248C38.8612 37.5981 38.9512 37.3808 39.1116 37.2205C39.2719 37.0602 39.4894 36.9702 39.7161 36.9702Z" fill="black"/>
<path d="M39.7162 50.7056H151.693C151.92 50.7056 152.137 50.7956 152.298 50.9559C152.458 51.1161 152.548 51.3335 152.548 51.5601C152.548 51.7868 152.458 52.0041 152.298 52.1644C152.137 52.3247 151.92 52.4147 151.693 52.4147H39.7162C39.4895 52.4147 39.272 52.3247 39.1116 52.1644C38.9513 52.0041 38.8612 51.7868 38.8612 51.5601C38.8612 51.3335 38.9513 51.1161 39.1116 50.9559C39.272 50.7956 39.4895 50.7056 39.7162 50.7056Z" fill="black"/>
<path d="M83.986 64.3789H151.693C151.92 64.3789 152.137 64.4689 152.298 64.6292C152.458 64.7895 152.548 65.0068 152.548 65.2335C152.548 65.4601 152.458 65.6775 152.298 65.8377C152.137 65.998 151.92 66.088 151.693 66.088H83.986C83.7592 66.088 83.5418 65.998 83.3814 65.8377C83.2211 65.6775 83.131 65.4601 83.131 65.2335C83.131 65.0068 83.2211 64.7895 83.3814 64.6292C83.5418 64.4689 83.7592 64.3789 83.986 64.3789Z" fill="black"/>
</svg>
