<svg width="62" height="60" viewBox="0 0 62 60" fill="none" xmlns="http://www.w3.org/2000/svg">
<mask id="mask0_78_74" style="mask-type:alpha" maskUnits="userSpaceOnUse" x="0" y="0" width="62" height="60">
<rect x="0.199097" width="61.2357" height="60" fill="#D9D9D9"/>
</mask>
<g mask="url(#mask0_78_74)">
<path d="M30.8169 55C27.2873 55 23.9704 54.3438 20.8661 53.0312C17.7618 51.7188 15.0614 49.9375 12.7651 47.6875C10.4688 45.4375 8.65083 42.7917 7.3113 39.75C5.97177 36.7083 5.302 33.4583 5.302 30C5.302 26.5417 5.97177 23.2917 7.3113 20.25C8.65083 17.2083 10.4688 14.5625 12.7651 12.3125C15.0614 10.0625 17.7618 8.28125 20.8661 6.96875C23.9704 5.65625 27.2873 5 30.8169 5H51.2288C52.6321 5 53.8334 5.48958 54.8328 6.46875C55.8321 7.44792 56.3317 8.625 56.3317 10V30C56.3317 33.4583 55.662 36.7083 54.3225 39.75C52.9829 42.7917 51.165 45.4375 48.8687 47.6875C46.5723 49.9375 43.872 51.7188 40.7677 53.0312C37.6634 54.3438 34.3464 55 30.8169 55ZM30.8169 50C36.5152 50 41.3418 48.0625 45.2966 44.1875C49.2514 40.3125 51.2288 35.5833 51.2288 30V10H30.8169C25.1186 10 20.292 11.9375 16.3372 15.8125C12.3824 19.6875 10.405 24.4167 10.405 30C10.405 35.5833 12.3824 40.3125 16.3372 44.1875C20.292 48.0625 25.1186 50 30.8169 50ZM18.0594 37.5H35.9199V32.5L43.5743 37.5V22.5L35.9199 27.5V22.5H18.0594V37.5Z" fill="white" fill-opacity="0.9"/>
</g>
</svg>
