<?xml version="1.0" encoding="UTF-8"?>
<svg id="Layer_1" data-name="Layer 1" xmlns="http://www.w3.org/2000/svg" viewBox="0 0 595.28 841.89">
  <defs>
    <style>
      .cls-1 {
        fill: #4ed6da;
      }

      .cls-2 {
        fill: #04789d;
      }
    </style>
  </defs>
  <g>
    <path class="cls-1" d="m58.07,409.48s10.14-37.65,50.02-35.11c0,0,22.38-1.23,37.78,22.33,0,0,6.67,8.25.09,8.77,0,0-.97,2.11-5-5.43,0,0-9.42-18.34-32.82-20.07,0,0-20.43-.77-20.36,6.14,0,0,1.38,6.24,9.57,1.55,0,0,15.77-3.79,26.41,5.32,0,0-.85,4.56-9.66,1.22,0,0-11.13-4.63-22.92,1.76,0,0-6.52,6.66-14.8,2.46,0,0-5.93-.6-5.22,4.34,0,0,4.03,6.87,16.5,3.45,0,0,14.38-11.02,24.98-4.88,0,0,10.59,4.83,17.42-3.81,0,0,5.66,6.2,6.35,9.15,0,0,7.37,11.45,16.18,3.78,0,0,10.79-7.03-5.86-24.64,0,0-17.03-21.56-47.63-18.93,0,0-27,.94-43.5,29.12,0,0-8.06,16.55-4.73,20.14,0,0,6.64,5.2,7.18-6.66Z"/>
    <path class="cls-2" d="m133.7,456.54s13.74-8.38,18.79-29.51c0,0,.27-5.27,5.56-3.68,0,0,7.3,5.19-9.57,29.41,0,0-17.76,23.36-44.68,21.12,0,0-33.48.46-48.95-30.01,0,0-4.39-10.49,3.47-14.86,0,0,8.84-5.03,14.87,4.78,0,0,4.38,9.18,6.35,9.15,0,0,6.17-8.63,18.74-3.16,0,0,8.94,4.52,21.03-4.18,0,0,6.2-5.66,16.8.15,0,0,3.31,1.94,1.05,6.25,0,0-1.63,1.99-5.27.06,0,0-7.61-2.88-11.18,1.44,0,0-9.47,7.68-23.34,3.87,0,0-7.95-4.53-12.18.46,0,0,10.64,9.77,30.35,4.29,0,0,5.91-2.04,5.97,3.56,0,0-.2,3.51-6.66,4.46,0,0-23.13,5.84-39.98-11,0,0-5.2-5.76-8.9-12.31,0,0-2.02-4.26-5.27.39,0,0,.73,6.91,8.72,14.4,0,0,17.76,20.01,45.48,13.9,0,0,11.62-2.32,18.8-8.98Z"/>
  </g>
  <g>
    <path class="cls-2" d="m242.69,395.97v55.88h-12.7l-.02-37.73-5.06,37.73h-9.01l-5.33-36.86-.02,36.86h-12.7v-55.88h18.8c.56,3.36,1.13,7.32,1.73,11.88l2.06,14.21,3.34-26.09h18.91Z"/>
    <path class="cls-2" d="m265.72,395.97v7.28h-14.36v-7.28h14.36Zm0,10.08v45.8h-14.36v-45.8h14.36Z"/>
    <path class="cls-2" d="m288.16,406.05l-.24,4.22c1.01-1.68,2.25-2.94,3.71-3.79,1.46-.84,3.15-1.26,5.06-1.26,2.39,0,4.35.56,5.87,1.69,1.52,1.13,2.5,2.55,2.93,4.26.44,1.71.66,4.57.66,8.58v32.1h-13.94v-31.72c0-3.15-.1-5.07-.31-5.76-.21-.69-.78-1.04-1.73-1.04-.99,0-1.61.4-1.86,1.19-.25.79-.38,2.92-.38,6.37v30.96h-13.94v-45.8h14.19Z"/>
    <path class="cls-2" d="m345.92,395.97v55.88h-13.94v-3.32c-1.33,1.38-2.74,2.42-4.21,3.11s-3.01,1.04-4.62,1.04c-2.16,0-4.04-.57-5.63-1.71s-2.61-2.46-3.05-3.95c-.45-1.5-.67-3.93-.67-7.32v-21.44c0-3.52.22-6.02.67-7.49.45-1.47,1.48-2.77,3.09-3.88,1.61-1.12,3.53-1.67,5.76-1.67,1.73,0,3.31.31,4.75.93,1.44.62,2.74,1.56,3.92,2.8v-12.99h13.94Zm-13.94,21.61c0-1.68-.14-2.81-.43-3.38-.29-.57-.86-.86-1.71-.86s-1.39.26-1.67.78c-.29.52-.43,1.67-.43,3.47v22.44c0,1.86.14,3.09.41,3.68.28.59.81.88,1.59.88.9,0,1.5-.33,1.79-.98.3-.66.45-2.26.45-4.82v-21.19Z"/>
    <path class="cls-2" d="m399.42,395.97v55.88h-12.7l-.02-37.73-5.06,37.73h-9.01l-5.33-36.86-.02,36.86h-12.7v-55.88h18.8c.56,3.36,1.13,7.32,1.72,11.88l2.06,14.21,3.34-26.09h18.91Z"/>
    <path class="cls-2" d="m420.55,423.79h-13.08v-3.07c0-3.54.41-6.28,1.22-8.2.82-1.92,2.46-3.62,4.92-5.09,2.46-1.47,5.66-2.21,9.6-2.21,4.72,0,8.27.83,10.67,2.5,2.39,1.67,3.83,3.72,4.31,6.14.48,2.43.72,7.43.72,15v22.99h-13.57v-4.08c-.85,1.64-1.95,2.86-3.3,3.68-1.35.82-2.95,1.23-4.82,1.23-2.44,0-4.68-.69-6.71-2.05-2.04-1.37-3.05-4.37-3.05-8.99v-3.76c0-3.43.54-5.76,1.62-7.01,1.08-1.24,3.76-2.69,8.04-4.35,4.58-1.79,7.03-3,7.35-3.62.32-.62.48-1.89.48-3.8,0-2.39-.18-3.95-.54-4.68-.36-.72-.95-1.09-1.78-1.09-.94,0-1.53.31-1.76.91-.23.61-.35,2.19-.35,4.75v4.8Zm4.42,6.28c-2.23,1.63-3.53,3-3.88,4.11s-.54,2.69-.54,4.76c0,2.37.16,3.9.47,4.59.31.69.93,1.04,1.85,1.04s1.44-.27,1.71-.81.4-1.96.4-4.26v-9.42Z"/>
    <path class="cls-2" d="m461.67,399.94v7.21h3.76v7.25h-3.76v24.51c0,3.01.16,4.69.47,5.04.31.35,1.61.52,3.88.52v7.39h-5.63c-3.18,0-5.44-.13-6.8-.4-1.36-.26-2.55-.87-3.59-1.83-1.04-.95-1.68-2.05-1.93-3.28-.25-1.23-.38-4.12-.38-8.68v-23.26h-3v-7.25h3v-7.21h13.98Z"/>
    <path class="cls-2" d="m503.34,429.76h-18.05v9.91c0,2.07.15,3.41.45,4,.3.6.87.9,1.73.9,1.06,0,1.77-.4,2.12-1.19.36-.79.53-2.33.53-4.61v-6.04h13.22v3.38c0,2.83-.18,5-.54,6.52-.36,1.52-1.19,3.14-2.5,4.87s-2.97,3.02-4.99,3.88c-2.01.86-4.54,1.29-7.58,1.29s-5.55-.43-7.8-1.28c-2.26-.85-4.01-2.02-5.26-3.5-1.25-1.48-2.12-3.12-2.61-4.9-.48-1.78-.72-4.38-.72-7.78v-13.36c0-4,.54-7.16,1.62-9.47,1.08-2.31,2.85-4.08,5.32-5.32,2.46-1.23,5.29-1.85,8.49-1.85,3.91,0,7.14.74,9.68,2.23s4.33,3.45,5.35,5.9c1.02,2.45,1.54,5.9,1.54,10.34v6.07Zm-13.98-7.46v-3.35c0-2.37-.13-3.9-.38-4.59-.25-.69-.77-1.04-1.55-1.04-.97,0-1.57.29-1.79.88-.23.59-.35,2.17-.35,4.75v3.35h4.07Z"/>
    <path class="cls-2" d="m539.62,420.69h-12.36v-2.49c0-2.12-.12-3.46-.36-4.02-.24-.56-.85-.85-1.81-.85-.78,0-1.37.26-1.76.78-.39.52-.59,1.29-.59,2.33,0,1.4.1,2.43.29,3.09s.78,1.38,1.76,2.16c.98.78,2.99,1.92,6.02,3.42,4.05,1.98,6.71,3.84,7.97,5.59s1.9,4.29,1.9,7.63c0,3.73-.48,6.54-1.45,8.44-.97,1.9-2.58,3.36-4.85,4.38-2.27,1.02-5,1.54-8.2,1.54-3.54,0-6.58-.55-9.09-1.66s-4.25-2.6-5.2-4.49-1.42-4.74-1.42-8.56v-2.21h12.36v2.9c0,2.46.16,4.06.47,4.8.31.74.93,1.1,1.85,1.1.99,0,1.68-.25,2.07-.74.39-.5.59-1.54.59-3.12,0-2.19-.25-3.56-.76-4.11-.53-.55-3.23-2.19-8.11-4.9-4.1-2.3-6.59-4.39-7.49-6.26-.9-1.88-1.35-4.1-1.35-6.68,0-3.66.48-6.36,1.45-8.09.97-1.74,2.61-3.08,4.92-4.02,2.31-.94,5-1.42,8.06-1.42s5.62.39,7.75,1.16c2.13.77,3.76,1.79,4.9,3.05,1.14,1.27,1.83,2.44,2.07,3.52.24,1.08.36,2.77.36,5.07v2.66Z"/>
  </g>
</svg>