<?xml version="1.0" encoding="UTF-8"?>
<svg id="Layer_1" data-name="Layer 1" xmlns="http://www.w3.org/2000/svg" viewBox="0 0 595.28 841.89">
  <defs>
    <style>
      .cls-1 {
        font-family: Impact, Impact;
        font-size: 49.33px;
        letter-spacing: .05em;
      }

      .cls-1, .cls-2 {
        fill: #04789d;
      }

      .cls-3 {
        fill: #4ed6da;
      }
    </style>
  </defs>
  <g>
    <path class="cls-3" d="m126.47,320.5s7.08-26.28,34.9-24.5c0,0,15.62-.85,26.37,15.58,0,0,4.66,5.76.06,6.12,0,0-.67,1.47-3.49-3.79,0,0-6.57-12.8-22.9-14.01,0,0-14.25-.54-14.2,4.29,0,0,.97,4.36,6.68,1.08,0,0,11-2.64,18.43,3.71,0,0-.59,3.18-6.74.85,0,0-7.77-3.23-15.99,1.23,0,0-4.55,4.64-10.32,1.72,0,0-4.14-.42-3.65,3.03,0,0,2.81,4.8,11.52,2.41,0,0,10.03-7.69,17.43-3.4,0,0,7.39,3.37,12.15-2.66,0,0,3.95,4.32,4.43,6.39,0,0,5.14,7.99,11.29,2.64,0,0,7.53-4.91-4.09-17.19,0,0-11.88-15.04-33.23-13.21,0,0-18.84.66-30.35,20.32,0,0-5.62,11.55-3.3,14.05,0,0,4.63,3.63,5.01-4.65Z"/>
    <path class="cls-2" d="m179.25,353.34s9.59-5.85,13.11-20.59c0,0,.19-3.68,3.88-2.57,0,0,5.09,3.62-6.68,20.53,0,0-12.39,16.3-31.18,14.74,0,0-23.36.32-34.16-20.94,0,0-3.07-7.32,2.42-10.37,0,0,6.17-3.51,10.38,3.34,0,0,3.06,6.4,4.43,6.39,0,0,4.3-6.02,13.08-2.21,0,0,6.24,3.15,14.68-2.91,0,0,4.32-3.95,11.72.11,0,0,2.31,1.35.74,4.36,0,0-1.13,1.39-3.68.04,0,0-5.31-2.01-7.8,1,0,0-6.61,5.36-16.29,2.7,0,0-5.55-3.16-8.5.32,0,0,7.43,6.82,21.18,2.99,0,0,4.12-1.42,4.16,2.48,0,0-.14,2.45-4.65,3.11,0,0-16.14,4.07-27.89-7.67,0,0-3.63-4.02-6.21-8.59,0,0-1.41-2.97-3.67.27,0,0,.51,4.82,6.08,10.05,0,0,12.39,13.96,31.74,9.7,0,0,8.11-1.62,13.12-6.27Z"/>
  </g>
  <text class="cls-1" transform="translate(221.98 350.07)"><tspan x="0" y="0">MindMates</tspan></text>
</svg>